<svg width="375" height="831" viewBox="0 0 375 831" fill="none" xmlns="http://www.w3.org/2000/svg">
<g clip-path="url(#clip0_48_1655)">
<rect width="375" height="831" fill="#F8F8F8"/>
<path fill-rule="evenodd" clip-rule="evenodd" d="M32.0314 55.4689C32.1012 55.5385 32.1566 55.6213 32.1944 55.7124C32.2322 55.8035 32.2517 55.9012 32.2517 55.9999C32.2517 56.0985 32.2322 56.1962 32.1944 56.2873C32.1566 56.3784 32.1012 56.4612 32.0314 56.5309L23.5609 64.9999L32.0314 73.4689C32.1722 73.6097 32.2513 73.8007 32.2513 73.9999C32.2513 74.199 32.1722 74.39 32.0314 74.5309C31.8905 74.6717 31.6995 74.7508 31.5004 74.7508C31.3012 74.7508 31.1102 74.6717 30.9694 74.5309L21.9694 65.5309C21.8995 65.4612 21.8441 65.3784 21.8063 65.2873C21.7685 65.1962 21.749 65.0985 21.749 64.9999C21.749 64.9012 21.7685 64.8035 21.8063 64.7124C21.8441 64.6213 21.8995 64.5385 21.9694 64.4689L30.9694 55.4689C31.039 55.399 31.1218 55.3436 31.2129 55.3058C31.304 55.268 31.4017 55.2485 31.5004 55.2485C31.599 55.2485 31.6967 55.268 31.7878 55.3058C31.8789 55.3436 31.9617 55.399 32.0314 55.4689V55.4689Z" fill="black"/>
<path d="M157.555 67.8984H158.969C159.036 68.5078 159.333 68.9974 159.859 69.3672C160.391 69.737 161.06 69.9219 161.867 69.9219C162.628 69.9219 163.255 69.7422 163.75 69.3828C164.25 69.0182 164.5 68.5599 164.5 68.0078C164.5 67.5339 164.326 67.1432 163.977 66.8359C163.633 66.5286 163.081 66.276 162.32 66.0781L160.875 65.7031C159.833 65.4375 159.073 65.0677 158.594 64.5938C158.115 64.1146 157.875 63.4922 157.875 62.7266C157.875 61.7891 158.245 61.0234 158.984 60.4297C159.729 59.8359 160.688 59.5391 161.859 59.5391C162.979 59.5391 163.906 59.8411 164.641 60.4453C165.375 61.0443 165.758 61.8151 165.789 62.7578H164.383C164.32 62.1536 164.06 61.6771 163.602 61.3281C163.143 60.9792 162.547 60.8047 161.812 60.8047C161.083 60.8047 160.487 60.9766 160.023 61.3203C159.565 61.6641 159.336 62.112 159.336 62.6641C159.336 63.0911 159.503 63.4427 159.836 63.7188C160.174 63.9896 160.727 64.224 161.492 64.4219L162.672 64.7344C163.839 65.026 164.677 65.4141 165.188 65.8984C165.698 66.3828 165.953 67.0286 165.953 67.8359C165.953 68.8672 165.573 69.6849 164.812 70.2891C164.057 70.888 163.031 71.1875 161.734 71.1875C160.536 71.1875 159.557 70.888 158.797 70.2891C158.036 69.6901 157.622 68.8932 157.555 67.8984ZM171.281 63.6953C170.62 63.6953 170.07 63.9141 169.633 64.3516C169.201 64.7891 168.961 65.3646 168.914 66.0781H173.547C173.531 65.3646 173.315 64.7891 172.898 64.3516C172.487 63.9141 171.948 63.6953 171.281 63.6953ZM173.516 68.5938H174.859C174.745 69.3177 174.359 69.9141 173.703 70.3828C173.047 70.8464 172.268 71.0781 171.367 71.0781C170.185 71.0781 169.245 70.6953 168.547 69.9297C167.854 69.1641 167.508 68.1276 167.508 66.8203C167.508 65.513 167.854 64.4661 168.547 63.6797C169.24 62.8932 170.159 62.5 171.305 62.5C172.43 62.5 173.32 62.8724 173.977 63.6172C174.633 64.3568 174.961 65.362 174.961 66.6328V67.1641H168.914V67.2422C168.914 68.0443 169.141 68.6849 169.594 69.1641C170.047 69.6432 170.648 69.8828 171.398 69.8828C171.924 69.8828 172.378 69.7682 172.758 69.5391C173.143 69.3047 173.396 68.9896 173.516 68.5938ZM177.336 60.6797H178.695V62.5781H180.336V63.7031H178.695V68.7578C178.695 69.1432 178.779 69.4271 178.945 69.6094C179.117 69.7917 179.383 69.8828 179.742 69.8828C179.977 69.8828 180.172 69.8698 180.328 69.8438V70.9922C180.13 71.0391 179.839 71.0625 179.453 71.0625C178.693 71.0625 178.148 70.8906 177.82 70.5469C177.497 70.1979 177.336 69.6198 177.336 68.8125V63.7031H176.164V62.5781H177.336V60.6797ZM182.789 60.6797H184.148V62.5781H185.789V63.7031H184.148V68.7578C184.148 69.1432 184.232 69.4271 184.398 69.6094C184.57 69.7917 184.836 69.8828 185.195 69.8828C185.43 69.8828 185.625 69.8698 185.781 69.8438V70.9922C185.583 71.0391 185.292 71.0625 184.906 71.0625C184.146 71.0625 183.602 70.8906 183.273 70.5469C182.951 70.1979 182.789 69.6198 182.789 68.8125V63.7031H181.617V62.5781H182.789V60.6797ZM187.875 71V62.5781H189.234V71H187.875ZM188.555 61.2188C188.32 61.2188 188.117 61.1354 187.945 60.9688C187.779 60.7969 187.695 60.5938 187.695 60.3594C187.695 60.1198 187.779 59.9167 187.945 59.75C188.117 59.5833 188.32 59.5 188.555 59.5C188.794 59.5 188.997 59.5833 189.164 59.75C189.331 59.9167 189.414 60.1198 189.414 60.3594C189.414 60.5938 189.331 60.7969 189.164 60.9688C188.997 61.1354 188.794 61.2188 188.555 61.2188ZM191.656 71V62.5781H192.938V63.9453H192.969C193.505 62.9818 194.422 62.5 195.719 62.5C196.646 62.5 197.378 62.7786 197.914 63.3359C198.451 63.888 198.719 64.6432 198.719 65.6016V71H197.359V65.8359C197.359 65.1484 197.182 64.6224 196.828 64.2578C196.479 63.8932 195.974 63.7109 195.312 63.7109C194.62 63.7109 194.062 63.9297 193.641 64.3672C193.224 64.8047 193.016 65.3854 193.016 66.1094V71H191.656ZM204.438 69.7891C205.177 69.7891 205.773 69.5104 206.227 68.9531C206.685 68.3906 206.914 67.6589 206.914 66.7578C206.914 65.8516 206.685 65.1172 206.227 64.5547C205.773 63.9922 205.177 63.7109 204.438 63.7109C203.703 63.7109 203.115 63.9896 202.672 64.5469C202.229 65.099 202.008 65.8359 202.008 66.7578C202.008 67.6745 202.229 68.4089 202.672 68.9609C203.115 69.513 203.703 69.7891 204.438 69.7891ZM204.461 74.0078C203.508 74.0078 202.714 73.7943 202.078 73.3672C201.443 72.9453 201.076 72.3854 200.977 71.6875H202.391C202.49 72.0365 202.732 72.3125 203.117 72.5156C203.508 72.724 203.982 72.8281 204.539 72.8281C205.268 72.8281 205.846 72.651 206.273 72.2969C206.701 71.9479 206.914 71.474 206.914 70.875V69.5547H206.883C206.617 70.013 206.247 70.3698 205.773 70.625C205.299 70.875 204.768 71 204.18 71C203.112 71 202.25 70.612 201.594 69.8359C200.943 69.0547 200.617 68.0286 200.617 66.7578C200.617 65.4714 200.945 64.4401 201.602 63.6641C202.258 62.888 203.128 62.5 204.211 62.5C204.805 62.5 205.339 62.625 205.812 62.875C206.292 63.125 206.672 63.4818 206.953 63.9453H206.977V62.5781H208.273V70.7656C208.273 71.7708 207.932 72.5625 207.25 73.1406C206.573 73.7188 205.643 74.0078 204.461 74.0078ZM210.484 64.9297C210.484 64.2214 210.773 63.6406 211.352 63.1875C211.935 62.7344 212.685 62.5078 213.602 62.5078C214.456 62.5078 215.172 62.737 215.75 63.1953C216.333 63.6484 216.638 64.2214 216.664 64.9141H215.359C215.318 64.5182 215.135 64.2057 214.812 63.9766C214.49 63.7474 214.07 63.6328 213.555 63.6328C213.034 63.6328 212.615 63.7448 212.297 63.9688C211.979 64.1927 211.82 64.4896 211.82 64.8594C211.82 65.4219 212.294 65.8203 213.242 66.0547L214.523 66.375C215.372 66.5885 215.969 66.8646 216.312 67.2031C216.661 67.5365 216.836 68.0104 216.836 68.625C216.836 69.3438 216.523 69.9323 215.898 70.3906C215.279 70.849 214.482 71.0781 213.508 71.0781C212.602 71.0781 211.849 70.8542 211.25 70.4062C210.651 69.9531 210.318 69.362 210.25 68.6328H211.617C211.685 69.0599 211.888 69.388 212.227 69.6172C212.57 69.8411 213.029 69.9531 213.602 69.9531C214.174 69.9531 214.628 69.8438 214.961 69.625C215.299 69.401 215.469 69.099 215.469 68.7188C215.469 68.4219 215.37 68.1875 215.172 68.0156C214.974 67.8385 214.635 67.6875 214.156 67.5625L212.68 67.1797C211.216 66.7995 210.484 66.0495 210.484 64.9297Z" fill="black"/>
<rect x="120" y="818" width="135" height="5" rx="2.5" fill="black"/>
<rect x="12" y="107" width="353" height="70" rx="15" fill="white"/>
<path d="M37.0176 147.164C35.6549 147.164 34.5726 146.706 33.7705 145.79C32.973 144.869 32.5742 143.628 32.5742 142.064C32.5742 140.515 32.9775 139.28 33.7842 138.359C34.5908 137.434 35.6686 136.972 37.0176 136.972C38.0931 136.972 39.0046 137.272 39.752 137.874C40.5039 138.471 40.9574 139.262 41.1123 140.246H39.8682C39.7087 139.599 39.3691 139.082 38.8496 138.694C38.3301 138.302 37.7194 138.106 37.0176 138.106C36.056 138.106 35.2858 138.466 34.707 139.187C34.1283 139.907 33.8389 140.866 33.8389 142.064C33.8389 143.277 34.126 144.241 34.7002 144.956C35.2744 145.672 36.0492 146.029 37.0244 146.029C37.749 146.029 38.3597 145.863 38.8564 145.53C39.3532 145.198 39.6904 144.73 39.8682 144.129H41.1123C40.8844 145.104 40.4173 145.854 39.7109 146.378C39.0046 146.902 38.1068 147.164 37.0176 147.164ZM43.4857 147V136.705H44.6751V140.827H44.7025C45.1673 139.984 45.9694 139.562 47.1087 139.562C47.9154 139.562 48.5671 139.813 49.0638 140.314C49.5606 140.816 49.8089 141.477 49.8089 142.297V147H48.6195V142.509C48.6195 141.921 48.4531 141.461 48.1205 141.128C47.7923 140.791 47.3366 140.622 46.7533 140.622C46.1289 140.622 45.6253 140.818 45.2425 141.21C44.8643 141.602 44.6751 142.119 44.6751 142.762V147H43.4857ZM54.7937 146.036C55.3952 146.036 55.892 145.863 56.2839 145.517C56.6804 145.166 56.8786 144.726 56.8786 144.197V143.603L54.9509 143.726C53.8298 143.794 53.2692 144.188 53.2692 144.908C53.2692 145.25 53.406 145.523 53.6794 145.729C53.9574 145.934 54.3288 146.036 54.7937 146.036ZM54.5407 147.068C53.7933 147.068 53.1918 146.87 52.736 146.474C52.2803 146.077 52.0524 145.553 52.0524 144.901C52.0524 144.268 52.2894 143.771 52.7634 143.411C53.2373 143.047 53.9209 142.837 54.8142 142.782L56.8786 142.659V142.044C56.8786 141.588 56.7328 141.237 56.4411 140.991C56.1494 140.745 55.7325 140.622 55.1901 140.622C54.7618 140.622 54.3994 140.725 54.1032 140.93C53.8116 141.135 53.6293 141.41 53.5563 141.757H52.4147C52.433 141.137 52.7087 140.618 53.2419 140.198C53.7751 139.774 54.4291 139.562 55.2038 139.562C56.0743 139.562 56.7692 139.779 57.2888 140.212C57.8083 140.64 58.0681 141.217 58.0681 141.941V147H56.9401V145.722H56.9128C56.7032 146.132 56.3841 146.46 55.9558 146.706C55.5274 146.948 55.0557 147.068 54.5407 147.068ZM60.6465 147V139.631H61.7676V140.827H61.795C62.2644 139.984 63.0665 139.562 64.2012 139.562C65.0124 139.562 65.6527 139.806 66.1221 140.294C66.5915 140.777 66.8262 141.438 66.8262 142.276V147H65.6368V142.481C65.6368 141.88 65.4818 141.42 65.1719 141.101C64.8666 140.782 64.4245 140.622 63.8458 140.622C63.2396 140.622 62.752 140.813 62.3829 141.196C62.0183 141.579 61.836 142.087 61.836 142.721V147H60.6465ZM72.392 145.94C73.0391 145.94 73.5609 145.697 73.9574 145.209C74.3585 144.717 74.559 144.076 74.559 143.288C74.559 142.495 74.3585 141.853 73.9574 141.36C73.5609 140.868 73.0391 140.622 72.392 140.622C71.7494 140.622 71.2344 140.866 70.8471 141.354C70.4597 141.837 70.266 142.481 70.266 143.288C70.266 144.09 70.4597 144.733 70.8471 145.216C71.2344 145.699 71.7494 145.94 72.392 145.94ZM72.4125 149.632C71.5785 149.632 70.8835 149.445 70.3275 149.071C69.7715 148.702 69.4503 148.212 69.3637 147.602H70.601C70.6876 147.907 70.8995 148.148 71.2367 148.326C71.5785 148.508 71.9932 148.6 72.4809 148.6C73.1189 148.6 73.6247 148.445 73.9984 148.135C74.3721 147.829 74.559 147.415 74.559 146.891V145.735H74.5316C74.2992 146.136 73.9756 146.449 73.5609 146.672C73.1462 146.891 72.6814 147 72.1664 147C71.2322 147 70.4779 146.66 69.9037 145.981C69.334 145.298 69.0492 144.4 69.0492 143.288C69.0492 142.162 69.3363 141.26 69.9105 140.581C70.4848 139.902 71.2458 139.562 72.1937 139.562C72.7133 139.562 73.1804 139.672 73.5951 139.891C74.0144 140.109 74.3471 140.422 74.5932 140.827H74.6137V139.631H75.7484V146.795C75.7484 147.674 75.4499 148.367 74.8529 148.873C74.2605 149.379 73.447 149.632 72.4125 149.632ZM81.3074 140.608C80.7286 140.608 80.2478 140.8 79.865 141.183C79.4867 141.565 79.2771 142.069 79.2361 142.693H83.2898C83.2761 142.069 83.087 141.565 82.7224 141.183C82.3624 140.8 81.8907 140.608 81.3074 140.608ZM83.2625 144.895H84.4382C84.338 145.528 84.0007 146.05 83.4265 146.46C82.8523 146.866 82.171 147.068 81.3826 147.068C80.3481 147.068 79.5255 146.733 78.9148 146.063C78.3087 145.394 78.0056 144.487 78.0056 143.343C78.0056 142.199 78.3087 141.283 78.9148 140.595C79.5209 139.907 80.3253 139.562 81.3279 139.562C82.3123 139.562 83.0916 139.888 83.6658 140.54C84.24 141.187 84.5271 142.067 84.5271 143.179V143.644H79.2361V143.712C79.2361 144.414 79.4343 144.974 79.8308 145.394C80.2273 145.813 80.7537 146.022 81.4099 146.022C81.8702 146.022 82.2667 145.922 82.5994 145.722C82.9366 145.517 83.1576 145.241 83.2625 144.895ZM91.2768 137.136H95.0024C95.9275 137.136 96.684 137.432 97.2719 138.024C97.8644 138.612 98.1606 139.371 98.1606 140.301C98.1606 141.235 97.8644 141.998 97.2719 142.591C96.6795 143.183 95.9184 143.479 94.9887 143.479H92.5073V147H91.2768V137.136ZM92.5073 138.229V142.386H94.6811C95.3829 142.386 95.9275 142.203 96.3149 141.839C96.7023 141.47 96.8959 140.957 96.8959 140.301C96.8959 139.645 96.7023 139.136 96.3149 138.776C95.9321 138.412 95.3875 138.229 94.6811 138.229H92.5073ZM102.216 146.036C102.817 146.036 103.314 145.863 103.706 145.517C104.102 145.166 104.301 144.726 104.301 144.197V143.603L102.373 143.726C101.252 143.794 100.691 144.188 100.691 144.908C100.691 145.25 100.828 145.523 101.101 145.729C101.379 145.934 101.751 146.036 102.216 146.036ZM101.963 147.068C101.215 147.068 100.614 146.87 100.158 146.474C99.7023 146.077 99.4744 145.553 99.4744 144.901C99.4744 144.268 99.7114 143.771 100.185 143.411C100.659 143.047 101.343 142.837 102.236 142.782L104.301 142.659V142.044C104.301 141.588 104.155 141.237 103.863 140.991C103.571 140.745 103.154 140.622 102.612 140.622C102.184 140.622 101.821 140.725 101.525 140.93C101.234 141.135 101.051 141.41 100.978 141.757H99.8367C99.8549 141.137 100.131 140.618 100.664 140.198C101.197 139.774 101.851 139.562 102.626 139.562C103.496 139.562 104.191 139.779 104.711 140.212C105.23 140.64 105.49 141.217 105.49 141.941V147H104.362V145.722H104.335C104.125 146.132 103.806 146.46 103.378 146.706C102.949 146.948 102.478 147.068 101.963 147.068ZM107.945 141.688C107.945 141.069 108.198 140.561 108.704 140.164C109.215 139.768 109.871 139.569 110.673 139.569C111.42 139.569 112.047 139.77 112.553 140.171C113.063 140.567 113.33 141.069 113.353 141.675H112.211C112.175 141.328 112.015 141.055 111.733 140.854C111.45 140.654 111.083 140.554 110.632 140.554C110.176 140.554 109.809 140.652 109.531 140.848C109.253 141.044 109.114 141.303 109.114 141.627C109.114 142.119 109.529 142.468 110.359 142.673L111.48 142.953C112.222 143.14 112.744 143.382 113.045 143.678C113.35 143.969 113.503 144.384 113.503 144.922C113.503 145.551 113.23 146.066 112.683 146.467C112.14 146.868 111.443 147.068 110.591 147.068C109.798 147.068 109.139 146.872 108.615 146.48C108.091 146.084 107.8 145.567 107.74 144.929H108.937C108.996 145.302 109.174 145.59 109.47 145.79C109.771 145.986 110.172 146.084 110.673 146.084C111.174 146.084 111.571 145.988 111.862 145.797C112.159 145.601 112.307 145.337 112.307 145.004C112.307 144.744 112.22 144.539 112.047 144.389C111.874 144.234 111.578 144.102 111.158 143.992L109.866 143.657C108.586 143.325 107.945 142.668 107.945 141.688ZM115.671 141.688C115.671 141.069 115.924 140.561 116.43 140.164C116.941 139.768 117.597 139.569 118.399 139.569C119.146 139.569 119.773 139.77 120.279 140.171C120.789 140.567 121.056 141.069 121.079 141.675H119.937C119.901 141.328 119.741 141.055 119.458 140.854C119.176 140.654 118.809 140.554 118.358 140.554C117.902 140.554 117.535 140.652 117.257 140.848C116.979 141.044 116.84 141.303 116.84 141.627C116.84 142.119 117.255 142.468 118.084 142.673L119.206 142.953C119.948 143.14 120.47 143.382 120.771 143.678C121.076 143.969 121.229 144.384 121.229 144.922C121.229 145.551 120.956 146.066 120.409 146.467C119.866 146.868 119.169 147.068 118.317 147.068C117.524 147.068 116.865 146.872 116.341 146.48C115.817 146.084 115.526 145.567 115.466 144.929H116.663C116.722 145.302 116.9 145.59 117.196 145.79C117.497 145.986 117.898 146.084 118.399 146.084C118.9 146.084 119.297 145.988 119.588 145.797C119.885 145.601 120.033 145.337 120.033 145.004C120.033 144.744 119.946 144.539 119.773 144.389C119.6 144.234 119.304 144.102 118.884 143.992L117.592 143.657C116.312 143.325 115.671 142.668 115.671 141.688ZM132.845 139.631L130.78 147H129.577L127.895 141.271H127.868L126.186 147H124.983L122.919 139.631H124.095L125.592 145.653H125.619L127.307 139.631H128.456L130.144 145.653H130.172L131.669 139.631H132.845ZM140.365 146.05C139.75 146.729 138.925 147.068 137.891 147.068C136.856 147.068 136.031 146.729 135.416 146.05C134.801 145.371 134.493 144.459 134.493 143.315C134.493 142.172 134.801 141.26 135.416 140.581C136.031 139.902 136.856 139.562 137.891 139.562C138.925 139.562 139.75 139.902 140.365 140.581C140.981 141.26 141.288 142.172 141.288 143.315C141.288 144.459 140.981 145.371 140.365 146.05ZM137.891 146.009C138.579 146.009 139.114 145.772 139.497 145.298C139.885 144.819 140.078 144.159 140.078 143.315C140.078 142.468 139.885 141.807 139.497 141.333C139.114 140.859 138.579 140.622 137.891 140.622C137.203 140.622 136.665 140.861 136.278 141.34C135.895 141.814 135.703 142.472 135.703 143.315C135.703 144.159 135.897 144.819 136.284 145.298C136.672 145.772 137.207 146.009 137.891 146.009ZM143.539 147V139.631H144.66V140.827H144.687C144.796 140.44 145.013 140.132 145.336 139.904C145.66 139.676 146.038 139.562 146.471 139.562C146.658 139.562 146.811 139.578 146.929 139.61V140.786C146.802 140.731 146.597 140.704 146.314 140.704C145.835 140.704 145.45 140.864 145.159 141.183C144.872 141.502 144.728 141.921 144.728 142.44V147H143.539ZM151.435 147.068C150.506 147.068 149.747 146.724 149.159 146.036C148.571 145.343 148.277 144.437 148.277 143.315C148.277 142.199 148.569 141.294 149.152 140.602C149.736 139.909 150.488 139.562 151.408 139.562C151.932 139.562 152.397 139.672 152.803 139.891C153.213 140.109 153.532 140.422 153.76 140.827H153.787V136.705H154.976V147H153.842V145.756H153.821C153.58 146.18 153.254 146.506 152.844 146.733C152.438 146.957 151.969 147.068 151.435 147.068ZM151.647 140.622C151 140.622 150.478 140.868 150.082 141.36C149.69 141.853 149.494 142.504 149.494 143.315C149.494 144.131 149.69 144.785 150.082 145.277C150.478 145.765 151 146.009 151.647 146.009C152.285 146.009 152.803 145.76 153.199 145.264C153.596 144.767 153.794 144.118 153.794 143.315C153.794 142.513 153.596 141.864 153.199 141.367C152.803 140.87 152.285 140.622 151.647 140.622Z" fill="black"/>
<path fill-rule="evenodd" clip-rule="evenodd" d="M327.969 151.531C327.899 151.461 327.843 151.379 327.806 151.288C327.768 151.196 327.748 151.099 327.748 151C327.748 150.901 327.768 150.804 327.806 150.713C327.843 150.622 327.899 150.539 327.969 150.469L336.439 142L327.969 133.531C327.828 133.39 327.749 133.199 327.749 133C327.749 132.801 327.828 132.61 327.969 132.469C328.109 132.328 328.3 132.249 328.5 132.249C328.699 132.249 328.89 132.328 329.031 132.469L338.031 141.469C338.1 141.539 338.156 141.622 338.194 141.713C338.232 141.804 338.251 141.901 338.251 142C338.251 142.099 338.232 142.196 338.194 142.288C338.156 142.379 338.1 142.461 338.031 142.531L329.031 151.531C328.961 151.601 328.878 151.656 328.787 151.694C328.696 151.732 328.598 151.751 328.5 151.751C328.401 151.751 328.303 151.732 328.212 151.694C328.121 151.656 328.038 151.601 327.969 151.531V151.531Z" fill="black"/>
<rect x="12" y="187" width="353" height="70" rx="15" fill="white"/>
<path d="M76.1875 217.229V221.01H78.6143C79.2477 221.01 79.7354 220.846 80.0771 220.518C80.4235 220.189 80.5967 219.722 80.5967 219.116C80.5967 218.524 80.4167 218.061 80.0566 217.729C79.6966 217.396 79.1976 217.229 78.5596 217.229H76.1875ZM76.1875 222.097V226H74.957V216.136H78.7236C79.6761 216.136 80.4372 216.405 81.0068 216.942C81.5811 217.476 81.8682 218.187 81.8682 219.075C81.8682 219.763 81.6927 220.358 81.3418 220.859C80.9909 221.361 80.5055 221.709 79.8857 221.905L82.1689 226H80.7266L78.6143 222.097H76.1875ZM90.4144 218.631V226H89.2933V224.783H89.266C88.8011 225.64 87.9968 226.068 86.8529 226.068C86.0462 226.068 85.4082 225.827 84.9388 225.344C84.4694 224.856 84.2347 224.193 84.2347 223.354V218.631H85.4242V223.149C85.4242 223.751 85.5768 224.211 85.8822 224.53C86.1921 224.849 86.6364 225.009 87.2152 225.009C87.8213 225.009 88.3067 224.817 88.6712 224.435C89.0404 224.052 89.225 223.544 89.225 222.91V218.631H90.4144ZM92.9108 220.688C92.9108 220.069 93.1638 219.561 93.6696 219.164C94.18 218.768 94.8363 218.569 95.6384 218.569C96.3858 218.569 97.0124 218.77 97.5183 219.171C98.0287 219.567 98.2953 220.069 98.3181 220.675H97.1765C97.14 220.328 96.9805 220.055 96.6979 219.854C96.4154 219.654 96.0485 219.554 95.5974 219.554C95.1416 219.554 94.7748 219.652 94.4968 219.848C94.2188 220.044 94.0798 220.303 94.0798 220.627C94.0798 221.119 94.4945 221.468 95.3239 221.673L96.445 221.953C97.1879 222.14 97.7097 222.382 98.0104 222.678C98.3158 222.969 98.4685 223.384 98.4685 223.922C98.4685 224.551 98.195 225.066 97.6481 225.467C97.1058 225.868 96.4086 226.068 95.5563 226.068C94.7634 226.068 94.1048 225.872 93.5808 225.48C93.0567 225.084 92.765 224.567 92.7058 223.929H93.9021C93.9613 224.302 94.139 224.59 94.4353 224.79C94.736 224.986 95.1371 225.084 95.6384 225.084C96.1397 225.084 96.5362 224.988 96.8278 224.797C97.1241 224.601 97.2722 224.337 97.2722 224.004C97.2722 223.744 97.1856 223.539 97.0124 223.389C96.8392 223.234 96.543 223.102 96.1237 222.992L94.8317 222.657C93.5511 222.325 92.9108 221.668 92.9108 220.688ZM100.637 220.688C100.637 220.069 100.89 219.561 101.396 219.164C101.906 218.768 102.562 218.569 103.364 218.569C104.112 218.569 104.738 218.77 105.244 219.171C105.755 219.567 106.021 220.069 106.044 220.675H104.902C104.866 220.328 104.706 220.055 104.424 219.854C104.141 219.654 103.774 219.554 103.323 219.554C102.868 219.554 102.501 219.652 102.223 219.848C101.945 220.044 101.806 220.303 101.806 220.627C101.806 221.119 102.22 221.468 103.05 221.673L104.171 221.953C104.914 222.14 105.436 222.382 105.736 222.678C106.042 222.969 106.194 223.384 106.194 223.922C106.194 224.551 105.921 225.066 105.374 225.467C104.832 225.868 104.134 226.068 103.282 226.068C102.489 226.068 101.831 225.872 101.307 225.48C100.783 225.084 100.491 224.567 100.432 223.929H101.628C101.687 224.302 101.865 224.59 102.161 224.79C102.462 224.986 102.863 225.084 103.364 225.084C103.866 225.084 104.262 224.988 104.554 224.797C104.85 224.601 104.998 224.337 104.998 224.004C104.998 223.744 104.912 223.539 104.738 223.389C104.565 223.234 104.269 223.102 103.85 222.992L102.558 222.657C101.277 222.325 100.637 221.668 100.637 220.688ZM108.554 226V218.631H109.744V226H108.554ZM109.149 217.441C108.944 217.441 108.766 217.368 108.616 217.223C108.47 217.072 108.397 216.895 108.397 216.689C108.397 216.48 108.47 216.302 108.616 216.156C108.766 216.01 108.944 215.938 109.149 215.938C109.358 215.938 109.536 216.01 109.682 216.156C109.828 216.302 109.901 216.48 109.901 216.689C109.901 216.895 109.828 217.072 109.682 217.223C109.536 217.368 109.358 217.441 109.149 217.441ZM114.831 225.036C115.432 225.036 115.929 224.863 116.321 224.517C116.718 224.166 116.916 223.726 116.916 223.197V222.603L114.988 222.726C113.867 222.794 113.306 223.188 113.306 223.908C113.306 224.25 113.443 224.523 113.717 224.729C113.995 224.934 114.366 225.036 114.831 225.036ZM114.578 226.068C113.83 226.068 113.229 225.87 112.773 225.474C112.317 225.077 112.09 224.553 112.09 223.901C112.09 223.268 112.327 222.771 112.801 222.411C113.274 222.047 113.958 221.837 114.851 221.782L116.916 221.659V221.044C116.916 220.588 116.77 220.237 116.478 219.991C116.187 219.745 115.77 219.622 115.227 219.622C114.799 219.622 114.437 219.725 114.14 219.93C113.849 220.135 113.666 220.41 113.594 220.757H112.452C112.47 220.137 112.746 219.618 113.279 219.198C113.812 218.774 114.466 218.562 115.241 218.562C116.111 218.562 116.806 218.779 117.326 219.212C117.845 219.64 118.105 220.217 118.105 220.941V226H116.977V224.722H116.95C116.74 225.132 116.421 225.46 115.993 225.706C115.565 225.948 115.093 226.068 114.578 226.068ZM120.684 226V218.631H121.805V219.827H121.832C122.302 218.984 123.104 218.562 124.238 218.562C125.05 218.562 125.69 218.806 126.159 219.294C126.629 219.777 126.863 220.438 126.863 221.276V226H125.674V221.481C125.674 220.88 125.519 220.42 125.209 220.101C124.904 219.782 124.462 219.622 123.883 219.622C123.277 219.622 122.789 219.813 122.42 220.196C122.055 220.579 121.873 221.087 121.873 221.721V226H120.684ZM133.866 226V215.705H135.055V226H133.866ZM140.143 225.036C140.744 225.036 141.241 224.863 141.633 224.517C142.029 224.166 142.228 223.726 142.228 223.197V222.603L140.3 222.726C139.179 222.794 138.618 223.188 138.618 223.908C138.618 224.25 138.755 224.523 139.028 224.729C139.306 224.934 139.678 225.036 140.143 225.036ZM139.89 226.068C139.142 226.068 138.541 225.87 138.085 225.474C137.629 225.077 137.402 224.553 137.402 223.901C137.402 223.268 137.638 222.771 138.112 222.411C138.586 222.047 139.27 221.837 140.163 221.782L142.228 221.659V221.044C142.228 220.588 142.082 220.237 141.79 219.991C141.499 219.745 141.082 219.622 140.539 219.622C140.111 219.622 139.749 219.725 139.452 219.93C139.161 220.135 138.978 220.41 138.905 220.757H137.764C137.782 220.137 138.058 219.618 138.591 219.198C139.124 218.774 139.778 218.562 140.553 218.562C141.423 218.562 142.118 218.779 142.638 219.212C143.157 219.64 143.417 220.217 143.417 220.941V226H142.289V224.722H142.262C142.052 225.132 141.733 225.46 141.305 225.706C140.876 225.948 140.405 226.068 139.89 226.068ZM145.996 226V218.631H147.117V219.827H147.144C147.613 218.984 148.416 218.562 149.55 218.562C150.361 218.562 151.002 218.806 151.471 219.294C151.941 219.777 152.175 220.438 152.175 221.276V226H150.986V221.481C150.986 220.88 150.831 220.42 150.521 220.101C150.216 219.782 149.774 219.622 149.195 219.622C148.589 219.622 148.101 219.813 147.732 220.196C147.367 220.579 147.185 221.087 147.185 221.721V226H145.996ZM157.741 224.94C158.388 224.94 158.91 224.697 159.306 224.209C159.708 223.717 159.908 223.076 159.908 222.288C159.908 221.495 159.708 220.853 159.306 220.36C158.91 219.868 158.388 219.622 157.741 219.622C157.098 219.622 156.584 219.866 156.196 220.354C155.809 220.837 155.615 221.481 155.615 222.288C155.615 223.09 155.809 223.733 156.196 224.216C156.584 224.699 157.098 224.94 157.741 224.94ZM157.762 228.632C156.928 228.632 156.233 228.445 155.677 228.071C155.121 227.702 154.799 227.212 154.713 226.602H155.95C156.037 226.907 156.249 227.148 156.586 227.326C156.928 227.508 157.342 227.6 157.83 227.6C158.468 227.6 158.974 227.445 159.348 227.135C159.721 226.829 159.908 226.415 159.908 225.891V224.735H159.881C159.648 225.136 159.325 225.449 158.91 225.672C158.495 225.891 158.03 226 157.515 226C156.581 226 155.827 225.66 155.253 224.981C154.683 224.298 154.398 223.4 154.398 222.288C154.398 221.162 154.685 220.26 155.26 219.581C155.834 218.902 156.595 218.562 157.543 218.562C158.062 218.562 158.529 218.672 158.944 218.891C159.363 219.109 159.696 219.422 159.942 219.827H159.963V218.631H161.098V225.795C161.098 226.674 160.799 227.367 160.202 227.873C159.61 228.379 158.796 228.632 157.762 228.632ZM169.863 218.631V226H168.741V224.783H168.714C168.249 225.64 167.445 226.068 166.301 226.068C165.494 226.068 164.856 225.827 164.387 225.344C163.918 224.856 163.683 224.193 163.683 223.354V218.631H164.872V223.149C164.872 223.751 165.025 224.211 165.33 224.53C165.64 224.849 166.085 225.009 166.663 225.009C167.269 225.009 167.755 224.817 168.119 224.435C168.488 224.052 168.673 223.544 168.673 222.91V218.631H169.863ZM174.888 225.036C175.49 225.036 175.987 224.863 176.378 224.517C176.775 224.166 176.973 223.726 176.973 223.197V222.603L175.045 222.726C173.924 222.794 173.364 223.188 173.364 223.908C173.364 224.25 173.501 224.523 173.774 224.729C174.052 224.934 174.423 225.036 174.888 225.036ZM174.635 226.068C173.888 226.068 173.286 225.87 172.831 225.474C172.375 225.077 172.147 224.553 172.147 223.901C172.147 223.268 172.384 222.771 172.858 222.411C173.332 222.047 174.016 221.837 174.909 221.782L176.973 221.659V221.044C176.973 220.588 176.827 220.237 176.536 219.991C176.244 219.745 175.827 219.622 175.285 219.622C174.856 219.622 174.494 219.725 174.198 219.93C173.906 220.135 173.724 220.41 173.651 220.757H172.509C172.528 220.137 172.803 219.618 173.336 219.198C173.87 218.774 174.524 218.562 175.298 218.562C176.169 218.562 176.864 218.779 177.383 219.212C177.903 219.64 178.163 220.217 178.163 220.941V226H177.035V224.722H177.007C176.798 225.132 176.479 225.46 176.05 225.706C175.622 225.948 175.15 226.068 174.635 226.068ZM183.722 224.94C184.369 224.94 184.891 224.697 185.287 224.209C185.688 223.717 185.889 223.076 185.889 222.288C185.889 221.495 185.688 220.853 185.287 220.36C184.891 219.868 184.369 219.622 183.722 219.622C183.079 219.622 182.564 219.866 182.177 220.354C181.789 220.837 181.596 221.481 181.596 222.288C181.596 223.09 181.789 223.733 182.177 224.216C182.564 224.699 183.079 224.94 183.722 224.94ZM183.742 228.632C182.908 228.632 182.213 228.445 181.657 228.071C181.101 227.702 180.78 227.212 180.693 226.602H181.931C182.017 226.907 182.229 227.148 182.566 227.326C182.908 227.508 183.323 227.6 183.81 227.6C184.448 227.6 184.954 227.445 185.328 227.135C185.702 226.829 185.889 226.415 185.889 225.891V224.735H185.861C185.629 225.136 185.305 225.449 184.891 225.672C184.476 225.891 184.011 226 183.496 226C182.562 226 181.808 225.66 181.233 224.981C180.664 224.298 180.379 223.4 180.379 222.288C180.379 221.162 180.666 220.26 181.24 219.581C181.814 218.902 182.575 218.562 183.523 218.562C184.043 218.562 184.51 218.672 184.925 218.891C185.344 219.109 185.677 219.422 185.923 219.827H185.943V218.631H187.078V225.795C187.078 226.674 186.78 227.367 186.183 227.873C185.59 228.379 184.777 228.632 183.742 228.632ZM192.637 219.608C192.058 219.608 191.577 219.8 191.195 220.183C190.816 220.565 190.607 221.069 190.566 221.693H194.619C194.606 221.069 194.417 220.565 194.052 220.183C193.692 219.8 193.22 219.608 192.637 219.608ZM194.592 223.895H195.768C195.668 224.528 195.33 225.05 194.756 225.46C194.182 225.866 193.501 226.068 192.712 226.068C191.678 226.068 190.855 225.733 190.244 225.063C189.638 224.394 189.335 223.487 189.335 222.343C189.335 221.199 189.638 220.283 190.244 219.595C190.851 218.907 191.655 218.562 192.657 218.562C193.642 218.562 194.421 218.888 194.995 219.54C195.57 220.187 195.857 221.067 195.857 222.179V222.644H190.566V222.712C190.566 223.414 190.764 223.974 191.16 224.394C191.557 224.813 192.083 225.022 192.74 225.022C193.2 225.022 193.596 224.922 193.929 224.722C194.266 224.517 194.487 224.241 194.592 223.895Z" fill="black"/>
<path fill-rule="evenodd" clip-rule="evenodd" d="M327.969 231.531C327.899 231.461 327.843 231.379 327.806 231.288C327.768 231.196 327.748 231.099 327.748 231C327.748 230.901 327.768 230.804 327.806 230.713C327.843 230.622 327.899 230.539 327.969 230.469L336.439 222L327.969 213.531C327.828 213.39 327.749 213.199 327.749 213C327.749 212.801 327.828 212.61 327.969 212.469C328.109 212.328 328.3 212.249 328.5 212.249C328.699 212.249 328.89 212.328 329.031 212.469L338.031 221.469C338.1 221.539 338.156 221.622 338.194 221.713C338.232 221.804 338.251 221.901 338.251 222C338.251 222.099 338.232 222.196 338.194 222.288C338.156 222.379 338.1 222.461 338.031 222.531L329.031 231.531C328.961 231.601 328.878 231.656 328.787 231.694C328.696 231.732 328.598 231.751 328.5 231.751C328.401 231.751 328.303 231.732 328.212 231.694C328.121 231.656 328.038 231.601 327.969 231.531V231.531Z" fill="black"/>
<g clip-path="url(#clip1_48_1655)">
<path d="M64 212H32V221H64V212Z" fill="white"/>
<path d="M64 221H32V230H64V221Z" fill="#D52B1E"/>
<path d="M64 218H32V224H64V218Z" fill="#0039A6"/>
</g>
<path d="M131.875 751.25C132.372 751.25 132.849 751.448 133.201 751.799C133.552 752.151 133.75 752.628 133.75 753.125V753.75C133.75 756.214 131.425 758.75 127.5 758.75C123.575 758.75 121.25 756.214 121.25 753.75V753.125C121.25 752.628 121.448 752.151 121.799 751.799C122.151 751.448 122.628 751.25 123.125 751.25H131.875ZM131.875 752.5H123.125C122.959 752.5 122.8 752.566 122.683 752.683C122.566 752.8 122.5 752.959 122.5 753.125V753.75C122.5 755.548 124.29 757.5 127.5 757.5C130.71 757.5 132.5 755.548 132.5 753.75V753.125C132.5 752.959 132.434 752.8 132.317 752.683C132.2 752.566 132.041 752.5 131.875 752.5ZM127.5 743.125C128.412 743.125 129.286 743.487 129.931 744.132C130.575 744.777 130.937 745.651 130.937 746.563C130.937 747.474 130.575 748.349 129.931 748.993C129.286 749.638 128.412 750 127.5 750C126.588 750 125.714 749.638 125.069 748.993C124.425 748.349 124.062 747.474 124.062 746.563C124.062 745.651 124.425 744.777 125.069 744.132C125.714 743.487 126.588 743.125 127.5 743.125V743.125ZM127.5 744.375C126.92 744.375 126.363 744.606 125.953 745.016C125.543 745.426 125.312 745.982 125.312 746.563C125.312 747.143 125.543 747.699 125.953 748.109C126.363 748.52 126.92 748.75 127.5 748.75C128.08 748.75 128.637 748.52 129.047 748.109C129.457 747.699 129.687 747.143 129.687 746.563C129.687 745.982 129.457 745.426 129.047 745.016C128.637 744.606 128.08 744.375 127.5 744.375V744.375ZM133.48 741.361L133.567 741.433L135.625 743.491L137.682 741.433C137.8 741.315 137.959 741.249 138.125 741.249C138.291 741.249 138.45 741.315 138.567 741.433C138.685 741.55 138.751 741.709 138.751 741.875C138.751 742.041 138.685 742.2 138.567 742.318L136.509 744.375L138.567 746.433C138.671 746.536 138.735 746.673 138.748 746.818C138.761 746.964 138.722 747.11 138.639 747.23L138.567 747.318C138.464 747.421 138.327 747.485 138.182 747.498C138.036 747.511 137.89 747.472 137.77 747.389L137.682 747.318L135.625 745.259L133.567 747.318C133.45 747.435 133.291 747.501 133.125 747.501C132.959 747.501 132.8 747.435 132.682 747.318C132.565 747.2 132.499 747.041 132.499 746.875C132.499 746.709 132.565 746.55 132.682 746.433L134.741 744.375L132.682 742.318C132.579 742.214 132.515 742.077 132.502 741.932C132.489 741.786 132.528 741.64 132.611 741.52L132.682 741.433C132.773 741.343 132.889 741.282 133.014 741.26C133.14 741.238 133.269 741.254 133.385 741.308L133.48 741.361Z" fill="#2E00E4"/>
<path d="M150.957 745.136H154.341C155.804 745.136 156.945 745.571 157.766 746.441C158.586 747.307 158.996 748.515 158.996 750.064C158.996 751.618 158.586 752.831 157.766 753.701C156.95 754.567 155.808 755 154.341 755H150.957V745.136ZM152.188 746.243V753.893H154.259C155.375 753.893 156.234 753.564 156.836 752.908C157.438 752.247 157.738 751.304 157.738 750.078C157.738 748.843 157.438 747.895 156.836 747.234C156.239 746.574 155.38 746.243 154.259 746.243H152.188ZM164.316 748.608C163.737 748.608 163.256 748.8 162.873 749.183C162.495 749.565 162.285 750.069 162.244 750.693H166.298C166.285 750.069 166.095 749.565 165.731 749.183C165.371 748.8 164.899 748.608 164.316 748.608ZM166.271 752.895H167.447C167.346 753.528 167.009 754.05 166.435 754.46C165.861 754.866 165.179 755.068 164.391 755.068C163.356 755.068 162.534 754.733 161.923 754.063C161.317 753.394 161.014 752.487 161.014 751.343C161.014 750.199 161.317 749.283 161.923 748.595C162.529 747.907 163.334 747.562 164.336 747.562C165.321 747.562 166.1 747.888 166.674 748.54C167.248 749.187 167.535 750.067 167.535 751.179V751.644H162.244V751.712C162.244 752.414 162.443 752.974 162.839 753.394C163.236 753.813 163.762 754.022 164.418 754.022C164.879 754.022 165.275 753.922 165.608 753.722C165.945 753.517 166.166 753.241 166.271 752.895ZM169.854 755V744.705H171.044V755H169.854ZM176.664 748.608C176.085 748.608 175.605 748.8 175.222 749.183C174.843 749.565 174.634 750.069 174.593 750.693H178.647C178.633 750.069 178.444 749.565 178.079 749.183C177.719 748.8 177.247 748.608 176.664 748.608ZM178.619 752.895H179.795C179.695 753.528 179.357 754.05 178.783 754.46C178.209 754.866 177.528 755.068 176.739 755.068C175.705 755.068 174.882 754.733 174.272 754.063C173.665 753.394 173.362 752.487 173.362 751.343C173.362 750.199 173.665 749.283 174.272 748.595C174.878 747.907 175.682 747.562 176.685 747.562C177.669 747.562 178.448 747.888 179.023 748.54C179.597 749.187 179.884 750.067 179.884 751.179V751.644H174.593V751.712C174.593 752.414 174.791 752.974 175.188 753.394C175.584 753.813 176.11 754.022 176.767 754.022C177.227 754.022 177.623 753.922 177.956 753.722C178.293 753.517 178.514 753.241 178.619 752.895ZM182.524 745.97H183.713V747.631H185.149V748.615H183.713V753.038C183.713 753.375 183.786 753.624 183.932 753.783C184.082 753.943 184.315 754.022 184.629 754.022C184.834 754.022 185.005 754.011 185.142 753.988V754.993C184.969 755.034 184.714 755.055 184.376 755.055C183.711 755.055 183.235 754.904 182.948 754.604C182.665 754.298 182.524 753.792 182.524 753.086V748.615H181.498V747.631H182.524V745.97ZM190.202 748.608C189.623 748.608 189.142 748.8 188.76 749.183C188.381 749.565 188.172 750.069 188.131 750.693H192.184C192.171 750.069 191.982 749.565 191.617 749.183C191.257 748.8 190.785 748.608 190.202 748.608ZM192.157 752.895H193.333C193.233 753.528 192.895 754.05 192.321 754.46C191.747 754.866 191.066 755.068 190.277 755.068C189.243 755.068 188.42 754.733 187.809 754.063C187.203 753.394 186.9 752.487 186.9 751.343C186.9 750.199 187.203 749.283 187.809 748.595C188.415 747.907 189.22 747.562 190.222 747.562C191.207 747.562 191.986 747.888 192.56 748.54C193.135 749.187 193.422 750.067 193.422 751.179V751.644H188.131V751.712C188.131 752.414 188.329 752.974 188.725 753.394C189.122 753.813 189.648 754.022 190.304 754.022C190.765 754.022 191.161 753.922 191.494 753.722C191.831 753.517 192.052 753.241 192.157 752.895ZM202.427 754.036C203.029 754.036 203.526 753.863 203.917 753.517C204.314 753.166 204.512 752.726 204.512 752.197V751.603L202.584 751.726C201.463 751.794 200.903 752.188 200.903 752.908C200.903 753.25 201.04 753.523 201.313 753.729C201.591 753.934 201.962 754.036 202.427 754.036ZM202.174 755.068C201.427 755.068 200.825 754.87 200.37 754.474C199.914 754.077 199.686 753.553 199.686 752.901C199.686 752.268 199.923 751.771 200.397 751.411C200.871 751.047 201.554 750.837 202.448 750.782L204.512 750.659V750.044C204.512 749.588 204.366 749.237 204.075 748.991C203.783 748.745 203.366 748.622 202.824 748.622C202.395 748.622 202.033 748.725 201.737 748.93C201.445 749.135 201.263 749.41 201.19 749.757H200.048C200.067 749.137 200.342 748.618 200.875 748.198C201.409 747.774 202.063 747.562 202.837 747.562C203.708 747.562 204.403 747.779 204.922 748.212C205.442 748.64 205.702 749.217 205.702 749.941V755H204.574V753.722H204.546C204.337 754.132 204.018 754.46 203.589 754.706C203.161 754.948 202.689 755.068 202.174 755.068ZM214.371 750.03H213.202C213.124 749.616 212.919 749.278 212.587 749.019C212.254 748.754 211.821 748.622 211.288 748.622C210.641 748.622 210.119 748.868 209.722 749.36C209.326 749.853 209.128 750.504 209.128 751.315C209.128 752.145 209.326 752.801 209.722 753.284C210.124 753.767 210.65 754.009 211.302 754.009C211.817 754.009 212.238 753.893 212.566 753.66C212.899 753.423 213.115 753.084 213.216 752.642H214.385C214.284 753.366 213.952 753.952 213.387 754.398C212.826 754.845 212.129 755.068 211.295 755.068C210.274 755.068 209.456 754.731 208.841 754.057C208.225 753.378 207.918 752.464 207.918 751.315C207.918 750.185 208.225 749.278 208.841 748.595C209.456 747.907 210.269 747.562 211.281 747.562C212.151 747.562 212.865 747.804 213.421 748.287C213.977 748.766 214.293 749.347 214.371 750.03ZM222.616 750.03H221.447C221.37 749.616 221.165 749.278 220.832 749.019C220.499 748.754 220.067 748.622 219.533 748.622C218.886 748.622 218.364 748.868 217.968 749.36C217.571 749.853 217.373 750.504 217.373 751.315C217.373 752.145 217.571 752.801 217.968 753.284C218.369 753.767 218.895 754.009 219.547 754.009C220.062 754.009 220.484 753.893 220.812 753.66C221.144 753.423 221.361 753.084 221.461 752.642H222.63C222.53 753.366 222.197 753.952 221.632 754.398C221.071 754.845 220.374 755.068 219.54 755.068C218.519 755.068 217.701 754.731 217.086 754.057C216.471 753.378 216.163 752.464 216.163 751.315C216.163 750.185 216.471 749.278 217.086 748.595C217.701 747.907 218.515 747.562 219.527 747.562C220.397 747.562 221.11 747.804 221.666 748.287C222.222 748.766 222.539 749.347 222.616 750.03ZM230.281 754.05C229.666 754.729 228.841 755.068 227.806 755.068C226.772 755.068 225.947 754.729 225.332 754.05C224.716 753.371 224.409 752.459 224.409 751.315C224.409 750.172 224.716 749.26 225.332 748.581C225.947 747.902 226.772 747.562 227.806 747.562C228.841 747.562 229.666 747.902 230.281 748.581C230.896 749.26 231.204 750.172 231.204 751.315C231.204 752.459 230.896 753.371 230.281 754.05ZM227.806 754.009C228.494 754.009 229.03 753.772 229.413 753.298C229.8 752.819 229.994 752.159 229.994 751.315C229.994 750.468 229.8 749.807 229.413 749.333C229.03 748.859 228.494 748.622 227.806 748.622C227.118 748.622 226.58 748.861 226.193 749.34C225.81 749.814 225.619 750.472 225.619 751.315C225.619 752.159 225.812 752.819 226.2 753.298C226.587 753.772 227.123 754.009 227.806 754.009ZM239.599 747.631V755H238.478V753.783H238.451C237.986 754.64 237.182 755.068 236.038 755.068C235.231 755.068 234.593 754.827 234.124 754.344C233.654 753.856 233.42 753.193 233.42 752.354V747.631H234.609V752.149C234.609 752.751 234.762 753.211 235.067 753.53C235.377 753.849 235.821 754.009 236.4 754.009C237.006 754.009 237.492 753.817 237.856 753.435C238.225 753.052 238.41 752.544 238.41 751.91V747.631H239.599ZM242.219 755V747.631H243.34V748.827H243.367C243.837 747.984 244.639 747.562 245.774 747.562C246.585 747.562 247.225 747.806 247.695 748.294C248.164 748.777 248.399 749.438 248.399 750.276V755H247.209V750.481C247.209 749.88 247.054 749.42 246.744 749.101C246.439 748.782 245.997 748.622 245.418 748.622C244.812 748.622 244.324 748.813 243.955 749.196C243.591 749.579 243.408 750.087 243.408 750.721V755H242.219ZM251.374 745.97H252.563V747.631H253.999V748.615H252.563V753.038C252.563 753.375 252.636 753.624 252.782 753.783C252.932 753.943 253.165 754.022 253.479 754.022C253.684 754.022 253.855 754.011 253.992 753.988V754.993C253.819 755.034 253.563 755.055 253.226 755.055C252.561 755.055 252.085 754.904 251.797 754.604C251.515 754.298 251.374 753.792 251.374 753.086V748.615H250.348V747.631H251.374V745.97Z" fill="#2E00E4"/>
<rect opacity="0.35" x="336.833" y="17.2979" width="21" height="9.98324" rx="2.16667" stroke="black"/>
<path opacity="0.4" d="M359.333 20.3513V24.2277C360.138 23.8994 360.661 23.1357 360.661 22.2895C360.661 21.4434 360.138 20.6796 359.333 20.3513" fill="black"/>
<rect x="338.333" y="18.7361" width="18" height="7.10681" rx="1.33333" fill="black"/>
<path fill-rule="evenodd" clip-rule="evenodd" d="M323.667 19.0093C325.892 19.0094 328.031 19.8371 329.644 21.3214C329.765 21.436 329.959 21.4346 330.079 21.3182L331.24 20.184C331.3 20.125 331.334 20.045 331.333 19.9618C331.333 19.8786 331.298 19.799 331.237 19.7407C327.005 15.8136 320.329 15.8136 316.097 19.7407C316.035 19.799 316.001 19.8785 316 19.9617C315.999 20.0449 316.033 20.1249 316.094 20.184L317.255 21.3182C317.374 21.4347 317.568 21.4362 317.69 21.3214C319.302 19.837 321.442 19.0093 323.667 19.0093ZM323.667 22.6993C324.889 22.6992 326.068 23.1391 326.974 23.9336C327.097 24.0463 327.29 24.0439 327.409 23.9281L328.569 22.7939C328.63 22.7344 328.663 22.6537 328.663 22.5698C328.662 22.486 328.626 22.406 328.564 22.3477C325.805 19.8625 321.532 19.8625 318.773 22.3477C318.71 22.406 318.675 22.486 318.674 22.5699C318.673 22.6538 318.707 22.7345 318.768 22.7939L319.927 23.9281C320.047 24.0439 320.24 24.0463 320.362 23.9336C321.268 23.1397 322.446 22.6998 323.667 22.6993ZM325.989 25.182C325.991 25.2661 325.957 25.3472 325.895 25.4061L323.89 27.3656C323.831 27.4232 323.751 27.4556 323.667 27.4556C323.583 27.4556 323.503 27.4232 323.445 27.3656L321.439 25.4061C321.377 25.3471 321.343 25.266 321.345 25.1819C321.347 25.0978 321.384 25.0182 321.449 24.9618C322.729 23.913 324.605 23.913 325.886 24.9618C325.95 25.0182 325.988 25.0979 325.989 25.182Z" fill="black"/>
<path fill-rule="evenodd" clip-rule="evenodd" d="M310 17.1208H309C308.448 17.1208 308 17.5547 308 18.09V26.4889C308 27.0242 308.448 27.458 309 27.458H310C310.552 27.458 311 27.0242 311 26.4889V18.09C311 17.5547 310.552 17.1208 310 17.1208ZM304.333 19.3821H305.333C305.886 19.3821 306.333 19.816 306.333 20.3512V26.4889C306.333 27.0241 305.886 27.458 305.333 27.458H304.333C303.781 27.458 303.333 27.0241 303.333 26.4889V20.3512C303.333 19.816 303.781 19.3821 304.333 19.3821ZM300.667 21.6434H299.667C299.114 21.6434 298.667 22.0772 298.667 22.6125V26.4889C298.667 27.0241 299.114 27.458 299.667 27.458H300.667C301.219 27.458 301.667 27.0241 301.667 26.4889V22.6125C301.667 22.0772 301.219 21.6434 300.667 21.6434ZM296 23.5816H295C294.448 23.5816 294 24.0155 294 24.5507V26.4889C294 27.0241 294.448 27.458 295 27.458H296C296.552 27.458 297 27.0241 297 26.4889V24.5507C297 24.0155 296.552 23.5816 296 23.5816Z" fill="black"/>
<path d="M37.8278 26.9961C36.8561 26.9961 36.0236 26.7324 35.3302 26.2051C34.6417 25.6777 34.2218 24.9893 34.0704 24.1396H35.9454C36.0626 24.54 36.2946 24.8623 36.6412 25.1064C36.9928 25.3457 37.3981 25.4653 37.8571 25.4653C38.6432 25.4653 39.2536 25.1138 39.6881 24.4106C40.1276 23.7026 40.34 22.7139 40.3253 21.4443H40.3107H40.3034H40.296C40.0861 21.9668 39.7247 22.3867 39.2121 22.7041C38.7042 23.0166 38.111 23.1729 37.4323 23.1729C36.4264 23.1729 35.589 22.8408 34.9201 22.1768C34.256 21.5127 33.924 20.6802 33.924 19.6792C33.924 18.6099 34.2951 17.7285 35.0372 17.0352C35.7843 16.3418 36.7291 15.9951 37.8717 15.9951C38.6481 15.9951 39.339 16.1758 39.9445 16.5371C40.5548 16.8984 41.0358 17.416 41.3873 18.0898C41.8903 18.9639 42.1417 20.0601 42.1417 21.3784C42.1417 23.1411 41.7609 24.5181 40.9992 25.5093C40.2374 26.5005 39.1803 26.9961 37.8278 26.9961ZM37.879 21.6934C38.4845 21.6934 38.9899 21.498 39.3952 21.1074C39.8004 20.7168 40.0031 20.231 40.0031 19.6499C40.0031 19.0591 39.798 18.561 39.3878 18.1558C38.9826 17.7505 38.4845 17.5479 37.8937 17.5479C37.3029 17.5479 36.8024 17.748 36.3922 18.1484C35.987 18.5488 35.7843 19.0396 35.7843 19.6206C35.7843 20.2163 35.9821 20.7119 36.3776 21.1074C36.778 21.498 37.2785 21.6934 37.879 21.6934ZM45.3881 25.0845C45.1732 25.2993 44.912 25.4067 44.6044 25.4067C44.2968 25.4067 44.0355 25.2993 43.8207 25.0845C43.6058 24.8696 43.4984 24.6084 43.4984 24.3008C43.4984 23.998 43.6058 23.7393 43.8207 23.5244C44.0355 23.3047 44.2968 23.1948 44.6044 23.1948C44.912 23.1948 45.1732 23.3047 45.3881 23.5244C45.6029 23.7393 45.7103 23.998 45.7103 24.3008C45.7103 24.6084 45.6029 24.8696 45.3881 25.0845ZM45.3881 19.562C45.1732 19.7769 44.912 19.8843 44.6044 19.8843C44.2968 19.8843 44.0355 19.7769 43.8207 19.562C43.6058 19.3423 43.4984 19.0786 43.4984 18.771C43.4984 18.4683 43.6058 18.2095 43.8207 17.9946C44.0355 17.7798 44.2968 17.6724 44.6044 17.6724C44.912 17.6724 45.1732 17.7798 45.3881 17.9946C45.6029 18.2095 45.7103 18.4683 45.7103 18.771C45.7103 19.0786 45.6029 19.3423 45.3881 19.562ZM52.2526 26.7837V24.7842H46.9791V23.1582C47.8483 21.5176 49.3107 19.2031 51.3663 16.2148H54.0543V23.2388H55.4752V24.7842H54.0543V26.7837H52.2526ZM48.693 23.2314V23.2827H52.2819V17.6138H52.2526C51.359 18.9077 50.6437 19.9771 50.1066 20.8218C49.5695 21.6665 49.0983 22.4697 48.693 23.2314ZM59.0951 26.7837V18.0166H59.0511L56.3192 19.9355V18.1558L59.0804 16.2148H60.9481V26.7837H59.0951Z" fill="black"/>
</g>
<defs>
<clipPath id="clip0_48_1655">
<rect width="375" height="831" fill="white"/>
</clipPath>
<clipPath id="clip1_48_1655">
<rect width="32" height="18" fill="white" transform="translate(32 212)"/>
</clipPath>
</defs>
</svg>
