<svg width="375" height="831" viewBox="0 0 375 831" fill="none" xmlns="http://www.w3.org/2000/svg">
<g clip-path="url(#clip0_48_1701)">
<rect width="375" height="831" fill="#F8F8F8"/>
<path fill-rule="evenodd" clip-rule="evenodd" d="M32.0314 55.4689C32.1012 55.5385 32.1566 55.6213 32.1944 55.7124C32.2322 55.8035 32.2517 55.9012 32.2517 55.9999C32.2517 56.0985 32.2322 56.1962 32.1944 56.2873C32.1566 56.3784 32.1012 56.4612 32.0314 56.5309L23.5609 64.9999L32.0314 73.4689C32.1722 73.6097 32.2513 73.8007 32.2513 73.9999C32.2513 74.199 32.1722 74.39 32.0314 74.5309C31.8905 74.6717 31.6995 74.7508 31.5004 74.7508C31.3012 74.7508 31.1102 74.6717 30.9694 74.5309L21.9694 65.5309C21.8995 65.4612 21.8441 65.3784 21.8063 65.2873C21.7685 65.1962 21.749 65.0985 21.749 64.9999C21.749 64.9012 21.7685 64.8035 21.8063 64.7124C21.8441 64.6213 21.8995 64.5385 21.9694 64.4689L30.9694 55.4689C31.039 55.399 31.1218 55.3436 31.2129 55.3058C31.304 55.268 31.4017 55.2485 31.5004 55.2485C31.599 55.2485 31.6967 55.268 31.7878 55.3058C31.8789 55.3436 31.9617 55.399 32.0314 55.4689V55.4689Z" fill="black"/>
<path d="M157.555 67.8984H158.969C159.036 68.5078 159.333 68.9974 159.859 69.3672C160.391 69.737 161.06 69.9219 161.867 69.9219C162.628 69.9219 163.255 69.7422 163.75 69.3828C164.25 69.0182 164.5 68.5599 164.5 68.0078C164.5 67.5339 164.326 67.1432 163.977 66.8359C163.633 66.5286 163.081 66.276 162.32 66.0781L160.875 65.7031C159.833 65.4375 159.073 65.0677 158.594 64.5938C158.115 64.1146 157.875 63.4922 157.875 62.7266C157.875 61.7891 158.245 61.0234 158.984 60.4297C159.729 59.8359 160.688 59.5391 161.859 59.5391C162.979 59.5391 163.906 59.8411 164.641 60.4453C165.375 61.0443 165.758 61.8151 165.789 62.7578H164.383C164.32 62.1536 164.06 61.6771 163.602 61.3281C163.143 60.9792 162.547 60.8047 161.812 60.8047C161.083 60.8047 160.487 60.9766 160.023 61.3203C159.565 61.6641 159.336 62.112 159.336 62.6641C159.336 63.0911 159.503 63.4427 159.836 63.7188C160.174 63.9896 160.727 64.224 161.492 64.4219L162.672 64.7344C163.839 65.026 164.677 65.4141 165.188 65.8984C165.698 66.3828 165.953 67.0286 165.953 67.8359C165.953 68.8672 165.573 69.6849 164.812 70.2891C164.057 70.888 163.031 71.1875 161.734 71.1875C160.536 71.1875 159.557 70.888 158.797 70.2891C158.036 69.6901 157.622 68.8932 157.555 67.8984ZM171.281 63.6953C170.62 63.6953 170.07 63.9141 169.633 64.3516C169.201 64.7891 168.961 65.3646 168.914 66.0781H173.547C173.531 65.3646 173.315 64.7891 172.898 64.3516C172.487 63.9141 171.948 63.6953 171.281 63.6953ZM173.516 68.5938H174.859C174.745 69.3177 174.359 69.9141 173.703 70.3828C173.047 70.8464 172.268 71.0781 171.367 71.0781C170.185 71.0781 169.245 70.6953 168.547 69.9297C167.854 69.1641 167.508 68.1276 167.508 66.8203C167.508 65.513 167.854 64.4661 168.547 63.6797C169.24 62.8932 170.159 62.5 171.305 62.5C172.43 62.5 173.32 62.8724 173.977 63.6172C174.633 64.3568 174.961 65.362 174.961 66.6328V67.1641H168.914V67.2422C168.914 68.0443 169.141 68.6849 169.594 69.1641C170.047 69.6432 170.648 69.8828 171.398 69.8828C171.924 69.8828 172.378 69.7682 172.758 69.5391C173.143 69.3047 173.396 68.9896 173.516 68.5938ZM177.336 60.6797H178.695V62.5781H180.336V63.7031H178.695V68.7578C178.695 69.1432 178.779 69.4271 178.945 69.6094C179.117 69.7917 179.383 69.8828 179.742 69.8828C179.977 69.8828 180.172 69.8698 180.328 69.8438V70.9922C180.13 71.0391 179.839 71.0625 179.453 71.0625C178.693 71.0625 178.148 70.8906 177.82 70.5469C177.497 70.1979 177.336 69.6198 177.336 68.8125V63.7031H176.164V62.5781H177.336V60.6797ZM182.789 60.6797H184.148V62.5781H185.789V63.7031H184.148V68.7578C184.148 69.1432 184.232 69.4271 184.398 69.6094C184.57 69.7917 184.836 69.8828 185.195 69.8828C185.43 69.8828 185.625 69.8698 185.781 69.8438V70.9922C185.583 71.0391 185.292 71.0625 184.906 71.0625C184.146 71.0625 183.602 70.8906 183.273 70.5469C182.951 70.1979 182.789 69.6198 182.789 68.8125V63.7031H181.617V62.5781H182.789V60.6797ZM187.875 71V62.5781H189.234V71H187.875ZM188.555 61.2188C188.32 61.2188 188.117 61.1354 187.945 60.9688C187.779 60.7969 187.695 60.5938 187.695 60.3594C187.695 60.1198 187.779 59.9167 187.945 59.75C188.117 59.5833 188.32 59.5 188.555 59.5C188.794 59.5 188.997 59.5833 189.164 59.75C189.331 59.9167 189.414 60.1198 189.414 60.3594C189.414 60.5938 189.331 60.7969 189.164 60.9688C188.997 61.1354 188.794 61.2188 188.555 61.2188ZM191.656 71V62.5781H192.938V63.9453H192.969C193.505 62.9818 194.422 62.5 195.719 62.5C196.646 62.5 197.378 62.7786 197.914 63.3359C198.451 63.888 198.719 64.6432 198.719 65.6016V71H197.359V65.8359C197.359 65.1484 197.182 64.6224 196.828 64.2578C196.479 63.8932 195.974 63.7109 195.312 63.7109C194.62 63.7109 194.062 63.9297 193.641 64.3672C193.224 64.8047 193.016 65.3854 193.016 66.1094V71H191.656ZM204.438 69.7891C205.177 69.7891 205.773 69.5104 206.227 68.9531C206.685 68.3906 206.914 67.6589 206.914 66.7578C206.914 65.8516 206.685 65.1172 206.227 64.5547C205.773 63.9922 205.177 63.7109 204.438 63.7109C203.703 63.7109 203.115 63.9896 202.672 64.5469C202.229 65.099 202.008 65.8359 202.008 66.7578C202.008 67.6745 202.229 68.4089 202.672 68.9609C203.115 69.513 203.703 69.7891 204.438 69.7891ZM204.461 74.0078C203.508 74.0078 202.714 73.7943 202.078 73.3672C201.443 72.9453 201.076 72.3854 200.977 71.6875H202.391C202.49 72.0365 202.732 72.3125 203.117 72.5156C203.508 72.724 203.982 72.8281 204.539 72.8281C205.268 72.8281 205.846 72.651 206.273 72.2969C206.701 71.9479 206.914 71.474 206.914 70.875V69.5547H206.883C206.617 70.013 206.247 70.3698 205.773 70.625C205.299 70.875 204.768 71 204.18 71C203.112 71 202.25 70.612 201.594 69.8359C200.943 69.0547 200.617 68.0286 200.617 66.7578C200.617 65.4714 200.945 64.4401 201.602 63.6641C202.258 62.888 203.128 62.5 204.211 62.5C204.805 62.5 205.339 62.625 205.812 62.875C206.292 63.125 206.672 63.4818 206.953 63.9453H206.977V62.5781H208.273V70.7656C208.273 71.7708 207.932 72.5625 207.25 73.1406C206.573 73.7188 205.643 74.0078 204.461 74.0078ZM210.484 64.9297C210.484 64.2214 210.773 63.6406 211.352 63.1875C211.935 62.7344 212.685 62.5078 213.602 62.5078C214.456 62.5078 215.172 62.737 215.75 63.1953C216.333 63.6484 216.638 64.2214 216.664 64.9141H215.359C215.318 64.5182 215.135 64.2057 214.812 63.9766C214.49 63.7474 214.07 63.6328 213.555 63.6328C213.034 63.6328 212.615 63.7448 212.297 63.9688C211.979 64.1927 211.82 64.4896 211.82 64.8594C211.82 65.4219 212.294 65.8203 213.242 66.0547L214.523 66.375C215.372 66.5885 215.969 66.8646 216.312 67.2031C216.661 67.5365 216.836 68.0104 216.836 68.625C216.836 69.3438 216.523 69.9323 215.898 70.3906C215.279 70.849 214.482 71.0781 213.508 71.0781C212.602 71.0781 211.849 70.8542 211.25 70.4062C210.651 69.9531 210.318 69.362 210.25 68.6328H211.617C211.685 69.0599 211.888 69.388 212.227 69.6172C212.57 69.8411 213.029 69.9531 213.602 69.9531C214.174 69.9531 214.628 69.8438 214.961 69.625C215.299 69.401 215.469 69.099 215.469 68.7188C215.469 68.4219 215.37 68.1875 215.172 68.0156C214.974 67.8385 214.635 67.6875 214.156 67.5625L212.68 67.1797C211.216 66.7995 210.484 66.0495 210.484 64.9297Z" fill="black"/>
<rect x="120" y="818" width="135" height="5" rx="2.5" fill="black"/>
<rect x="12" y="107" width="353" height="70" rx="15" fill="white"/>
<path d="M37.0176 147.164C35.6549 147.164 34.5726 146.706 33.7705 145.79C32.973 144.869 32.5742 143.628 32.5742 142.064C32.5742 140.515 32.9775 139.28 33.7842 138.359C34.5908 137.434 35.6686 136.972 37.0176 136.972C38.0931 136.972 39.0046 137.272 39.752 137.874C40.5039 138.471 40.9574 139.262 41.1123 140.246H39.8682C39.7087 139.599 39.3691 139.082 38.8496 138.694C38.3301 138.302 37.7194 138.106 37.0176 138.106C36.056 138.106 35.2858 138.466 34.707 139.187C34.1283 139.907 33.8389 140.866 33.8389 142.064C33.8389 143.277 34.126 144.241 34.7002 144.956C35.2744 145.672 36.0492 146.029 37.0244 146.029C37.749 146.029 38.3597 145.863 38.8564 145.53C39.3532 145.198 39.6904 144.73 39.8682 144.129H41.1123C40.8844 145.104 40.4173 145.854 39.7109 146.378C39.0046 146.902 38.1068 147.164 37.0176 147.164ZM43.4857 147V136.705H44.6751V140.827H44.7025C45.1673 139.984 45.9694 139.562 47.1087 139.562C47.9154 139.562 48.5671 139.813 49.0638 140.314C49.5606 140.816 49.8089 141.477 49.8089 142.297V147H48.6195V142.509C48.6195 141.921 48.4531 141.461 48.1205 141.128C47.7923 140.791 47.3366 140.622 46.7533 140.622C46.1289 140.622 45.6253 140.818 45.2425 141.21C44.8643 141.602 44.6751 142.119 44.6751 142.762V147H43.4857ZM54.7937 146.036C55.3952 146.036 55.892 145.863 56.2839 145.517C56.6804 145.166 56.8786 144.726 56.8786 144.197V143.603L54.9509 143.726C53.8298 143.794 53.2692 144.188 53.2692 144.908C53.2692 145.25 53.406 145.523 53.6794 145.729C53.9574 145.934 54.3288 146.036 54.7937 146.036ZM54.5407 147.068C53.7933 147.068 53.1918 146.87 52.736 146.474C52.2803 146.077 52.0524 145.553 52.0524 144.901C52.0524 144.268 52.2894 143.771 52.7634 143.411C53.2373 143.047 53.9209 142.837 54.8142 142.782L56.8786 142.659V142.044C56.8786 141.588 56.7328 141.237 56.4411 140.991C56.1494 140.745 55.7325 140.622 55.1901 140.622C54.7618 140.622 54.3994 140.725 54.1032 140.93C53.8116 141.135 53.6293 141.41 53.5563 141.757H52.4147C52.433 141.137 52.7087 140.618 53.2419 140.198C53.7751 139.774 54.4291 139.562 55.2038 139.562C56.0743 139.562 56.7692 139.779 57.2888 140.212C57.8083 140.64 58.0681 141.217 58.0681 141.941V147H56.9401V145.722H56.9128C56.7032 146.132 56.3841 146.46 55.9558 146.706C55.5274 146.948 55.0557 147.068 54.5407 147.068ZM60.6465 147V139.631H61.7676V140.827H61.795C62.2644 139.984 63.0665 139.562 64.2012 139.562C65.0124 139.562 65.6527 139.806 66.1221 140.294C66.5915 140.777 66.8262 141.438 66.8262 142.276V147H65.6368V142.481C65.6368 141.88 65.4818 141.42 65.1719 141.101C64.8666 140.782 64.4245 140.622 63.8458 140.622C63.2396 140.622 62.752 140.813 62.3829 141.196C62.0183 141.579 61.836 142.087 61.836 142.721V147H60.6465ZM72.392 145.94C73.0391 145.94 73.5609 145.697 73.9574 145.209C74.3585 144.717 74.559 144.076 74.559 143.288C74.559 142.495 74.3585 141.853 73.9574 141.36C73.5609 140.868 73.0391 140.622 72.392 140.622C71.7494 140.622 71.2344 140.866 70.8471 141.354C70.4597 141.837 70.266 142.481 70.266 143.288C70.266 144.09 70.4597 144.733 70.8471 145.216C71.2344 145.699 71.7494 145.94 72.392 145.94ZM72.4125 149.632C71.5785 149.632 70.8835 149.445 70.3275 149.071C69.7715 148.702 69.4503 148.212 69.3637 147.602H70.601C70.6876 147.907 70.8995 148.148 71.2367 148.326C71.5785 148.508 71.9932 148.6 72.4809 148.6C73.1189 148.6 73.6247 148.445 73.9984 148.135C74.3721 147.829 74.559 147.415 74.559 146.891V145.735H74.5316C74.2992 146.136 73.9756 146.449 73.5609 146.672C73.1462 146.891 72.6814 147 72.1664 147C71.2322 147 70.4779 146.66 69.9037 145.981C69.334 145.298 69.0492 144.4 69.0492 143.288C69.0492 142.162 69.3363 141.26 69.9105 140.581C70.4848 139.902 71.2458 139.562 72.1937 139.562C72.7133 139.562 73.1804 139.672 73.5951 139.891C74.0144 140.109 74.3471 140.422 74.5932 140.827H74.6137V139.631H75.7484V146.795C75.7484 147.674 75.4499 148.367 74.8529 148.873C74.2605 149.379 73.447 149.632 72.4125 149.632ZM81.3074 140.608C80.7286 140.608 80.2478 140.8 79.865 141.183C79.4867 141.565 79.2771 142.069 79.2361 142.693H83.2898C83.2761 142.069 83.087 141.565 82.7224 141.183C82.3624 140.8 81.8907 140.608 81.3074 140.608ZM83.2625 144.895H84.4382C84.338 145.528 84.0007 146.05 83.4265 146.46C82.8523 146.866 82.171 147.068 81.3826 147.068C80.3481 147.068 79.5255 146.733 78.9148 146.063C78.3087 145.394 78.0056 144.487 78.0056 143.343C78.0056 142.199 78.3087 141.283 78.9148 140.595C79.5209 139.907 80.3253 139.562 81.3279 139.562C82.3123 139.562 83.0916 139.888 83.6658 140.54C84.24 141.187 84.5271 142.067 84.5271 143.179V143.644H79.2361V143.712C79.2361 144.414 79.4343 144.974 79.8308 145.394C80.2273 145.813 80.7537 146.022 81.4099 146.022C81.8702 146.022 82.2667 145.922 82.5994 145.722C82.9366 145.517 83.1576 145.241 83.2625 144.895ZM91.2768 137.136H95.0024C95.9275 137.136 96.684 137.432 97.2719 138.024C97.8644 138.612 98.1606 139.371 98.1606 140.301C98.1606 141.235 97.8644 141.998 97.2719 142.591C96.6795 143.183 95.9184 143.479 94.9887 143.479H92.5073V147H91.2768V137.136ZM92.5073 138.229V142.386H94.6811C95.3829 142.386 95.9275 142.203 96.3149 141.839C96.7023 141.47 96.8959 140.957 96.8959 140.301C96.8959 139.645 96.7023 139.136 96.3149 138.776C95.9321 138.412 95.3875 138.229 94.6811 138.229H92.5073ZM102.216 146.036C102.817 146.036 103.314 145.863 103.706 145.517C104.102 145.166 104.301 144.726 104.301 144.197V143.603L102.373 143.726C101.252 143.794 100.691 144.188 100.691 144.908C100.691 145.25 100.828 145.523 101.101 145.729C101.379 145.934 101.751 146.036 102.216 146.036ZM101.963 147.068C101.215 147.068 100.614 146.87 100.158 146.474C99.7023 146.077 99.4744 145.553 99.4744 144.901C99.4744 144.268 99.7114 143.771 100.185 143.411C100.659 143.047 101.343 142.837 102.236 142.782L104.301 142.659V142.044C104.301 141.588 104.155 141.237 103.863 140.991C103.571 140.745 103.154 140.622 102.612 140.622C102.184 140.622 101.821 140.725 101.525 140.93C101.234 141.135 101.051 141.41 100.978 141.757H99.8367C99.8549 141.137 100.131 140.618 100.664 140.198C101.197 139.774 101.851 139.562 102.626 139.562C103.496 139.562 104.191 139.779 104.711 140.212C105.23 140.64 105.49 141.217 105.49 141.941V147H104.362V145.722H104.335C104.125 146.132 103.806 146.46 103.378 146.706C102.949 146.948 102.478 147.068 101.963 147.068ZM107.945 141.688C107.945 141.069 108.198 140.561 108.704 140.164C109.215 139.768 109.871 139.569 110.673 139.569C111.42 139.569 112.047 139.77 112.553 140.171C113.063 140.567 113.33 141.069 113.353 141.675H112.211C112.175 141.328 112.015 141.055 111.733 140.854C111.45 140.654 111.083 140.554 110.632 140.554C110.176 140.554 109.809 140.652 109.531 140.848C109.253 141.044 109.114 141.303 109.114 141.627C109.114 142.119 109.529 142.468 110.359 142.673L111.48 142.953C112.222 143.14 112.744 143.382 113.045 143.678C113.35 143.969 113.503 144.384 113.503 144.922C113.503 145.551 113.23 146.066 112.683 146.467C112.14 146.868 111.443 147.068 110.591 147.068C109.798 147.068 109.139 146.872 108.615 146.48C108.091 146.084 107.8 145.567 107.74 144.929H108.937C108.996 145.302 109.174 145.59 109.47 145.79C109.771 145.986 110.172 146.084 110.673 146.084C111.174 146.084 111.571 145.988 111.862 145.797C112.159 145.601 112.307 145.337 112.307 145.004C112.307 144.744 112.22 144.539 112.047 144.389C111.874 144.234 111.578 144.102 111.158 143.992L109.866 143.657C108.586 143.325 107.945 142.668 107.945 141.688ZM115.671 141.688C115.671 141.069 115.924 140.561 116.43 140.164C116.941 139.768 117.597 139.569 118.399 139.569C119.146 139.569 119.773 139.77 120.279 140.171C120.789 140.567 121.056 141.069 121.079 141.675H119.937C119.901 141.328 119.741 141.055 119.458 140.854C119.176 140.654 118.809 140.554 118.358 140.554C117.902 140.554 117.535 140.652 117.257 140.848C116.979 141.044 116.84 141.303 116.84 141.627C116.84 142.119 117.255 142.468 118.084 142.673L119.206 142.953C119.948 143.14 120.47 143.382 120.771 143.678C121.076 143.969 121.229 144.384 121.229 144.922C121.229 145.551 120.956 146.066 120.409 146.467C119.866 146.868 119.169 147.068 118.317 147.068C117.524 147.068 116.865 146.872 116.341 146.48C115.817 146.084 115.526 145.567 115.466 144.929H116.663C116.722 145.302 116.9 145.59 117.196 145.79C117.497 145.986 117.898 146.084 118.399 146.084C118.9 146.084 119.297 145.988 119.588 145.797C119.885 145.601 120.033 145.337 120.033 145.004C120.033 144.744 119.946 144.539 119.773 144.389C119.6 144.234 119.304 144.102 118.884 143.992L117.592 143.657C116.312 143.325 115.671 142.668 115.671 141.688ZM132.845 139.631L130.78 147H129.577L127.895 141.271H127.868L126.186 147H124.983L122.919 139.631H124.095L125.592 145.653H125.619L127.307 139.631H128.456L130.144 145.653H130.172L131.669 139.631H132.845ZM140.365 146.05C139.75 146.729 138.925 147.068 137.891 147.068C136.856 147.068 136.031 146.729 135.416 146.05C134.801 145.371 134.493 144.459 134.493 143.315C134.493 142.172 134.801 141.26 135.416 140.581C136.031 139.902 136.856 139.562 137.891 139.562C138.925 139.562 139.75 139.902 140.365 140.581C140.981 141.26 141.288 142.172 141.288 143.315C141.288 144.459 140.981 145.371 140.365 146.05ZM137.891 146.009C138.579 146.009 139.114 145.772 139.497 145.298C139.885 144.819 140.078 144.159 140.078 143.315C140.078 142.468 139.885 141.807 139.497 141.333C139.114 140.859 138.579 140.622 137.891 140.622C137.203 140.622 136.665 140.861 136.278 141.34C135.895 141.814 135.703 142.472 135.703 143.315C135.703 144.159 135.897 144.819 136.284 145.298C136.672 145.772 137.207 146.009 137.891 146.009ZM143.539 147V139.631H144.66V140.827H144.687C144.796 140.44 145.013 140.132 145.336 139.904C145.66 139.676 146.038 139.562 146.471 139.562C146.658 139.562 146.811 139.578 146.929 139.61V140.786C146.802 140.731 146.597 140.704 146.314 140.704C145.835 140.704 145.45 140.864 145.159 141.183C144.872 141.502 144.728 141.921 144.728 142.44V147H143.539ZM151.435 147.068C150.506 147.068 149.747 146.724 149.159 146.036C148.571 145.343 148.277 144.437 148.277 143.315C148.277 142.199 148.569 141.294 149.152 140.602C149.736 139.909 150.488 139.562 151.408 139.562C151.932 139.562 152.397 139.672 152.803 139.891C153.213 140.109 153.532 140.422 153.76 140.827H153.787V136.705H154.976V147H153.842V145.756H153.821C153.58 146.18 153.254 146.506 152.844 146.733C152.438 146.957 151.969 147.068 151.435 147.068ZM151.647 140.622C151 140.622 150.478 140.868 150.082 141.36C149.69 141.853 149.494 142.504 149.494 143.315C149.494 144.131 149.69 144.785 150.082 145.277C150.478 145.765 151 146.009 151.647 146.009C152.285 146.009 152.803 145.76 153.199 145.264C153.596 144.767 153.794 144.118 153.794 143.315C153.794 142.513 153.596 141.864 153.199 141.367C152.803 140.87 152.285 140.622 151.647 140.622Z" fill="black"/>
<path fill-rule="evenodd" clip-rule="evenodd" d="M327.969 151.531C327.899 151.461 327.844 151.379 327.806 151.288C327.768 151.196 327.749 151.099 327.749 151C327.749 150.901 327.768 150.804 327.806 150.713C327.844 150.622 327.899 150.539 327.969 150.469L336.44 142L327.969 133.531C327.828 133.39 327.749 133.199 327.749 133C327.749 132.801 327.828 132.61 327.969 132.469C328.11 132.328 328.301 132.249 328.5 132.249C328.699 132.249 328.89 132.328 329.031 132.469L338.031 141.469C338.101 141.539 338.156 141.622 338.194 141.713C338.232 141.804 338.251 141.901 338.251 142C338.251 142.099 338.232 142.196 338.194 142.288C338.156 142.379 338.101 142.461 338.031 142.531L329.031 151.531C328.961 151.601 328.879 151.656 328.788 151.694C328.696 151.732 328.599 151.751 328.5 151.751C328.401 151.751 328.304 151.732 328.213 151.694C328.122 151.656 328.039 151.601 327.969 151.531V151.531Z" fill="black"/>
<rect x="12" y="187" width="353" height="70" rx="15" fill="white"/>
<path d="M76.1875 217.229V221.01H78.6143C79.2477 221.01 79.7354 220.846 80.0771 220.518C80.4235 220.189 80.5967 219.722 80.5967 219.116C80.5967 218.524 80.4167 218.061 80.0566 217.729C79.6966 217.396 79.1976 217.229 78.5596 217.229H76.1875ZM76.1875 222.097V226H74.957V216.136H78.7236C79.6761 216.136 80.4372 216.405 81.0068 216.942C81.5811 217.476 81.8682 218.187 81.8682 219.075C81.8682 219.763 81.6927 220.358 81.3418 220.859C80.9909 221.361 80.5055 221.709 79.8857 221.905L82.1689 226H80.7266L78.6143 222.097H76.1875ZM90.4144 218.631V226H89.2933V224.783H89.266C88.8011 225.64 87.9968 226.068 86.8529 226.068C86.0462 226.068 85.4082 225.827 84.9388 225.344C84.4694 224.856 84.2347 224.193 84.2347 223.354V218.631H85.4242V223.149C85.4242 223.751 85.5768 224.211 85.8822 224.53C86.1921 224.849 86.6364 225.009 87.2152 225.009C87.8213 225.009 88.3067 224.817 88.6712 224.435C89.0404 224.052 89.225 223.544 89.225 222.91V218.631H90.4144ZM92.9108 220.688C92.9108 220.069 93.1638 219.561 93.6696 219.164C94.18 218.768 94.8363 218.569 95.6384 218.569C96.3858 218.569 97.0124 218.77 97.5183 219.171C98.0287 219.567 98.2953 220.069 98.3181 220.675H97.1765C97.14 220.328 96.9805 220.055 96.6979 219.854C96.4154 219.654 96.0485 219.554 95.5974 219.554C95.1416 219.554 94.7748 219.652 94.4968 219.848C94.2188 220.044 94.0798 220.303 94.0798 220.627C94.0798 221.119 94.4945 221.468 95.3239 221.673L96.445 221.953C97.1879 222.14 97.7097 222.382 98.0104 222.678C98.3158 222.969 98.4685 223.384 98.4685 223.922C98.4685 224.551 98.195 225.066 97.6481 225.467C97.1058 225.868 96.4086 226.068 95.5563 226.068C94.7634 226.068 94.1048 225.872 93.5808 225.48C93.0567 225.084 92.765 224.567 92.7058 223.929H93.9021C93.9613 224.302 94.139 224.59 94.4353 224.79C94.736 224.986 95.1371 225.084 95.6384 225.084C96.1397 225.084 96.5362 224.988 96.8278 224.797C97.1241 224.601 97.2722 224.337 97.2722 224.004C97.2722 223.744 97.1856 223.539 97.0124 223.389C96.8392 223.234 96.543 223.102 96.1237 222.992L94.8317 222.657C93.5511 222.325 92.9108 221.668 92.9108 220.688ZM100.637 220.688C100.637 220.069 100.89 219.561 101.396 219.164C101.906 218.768 102.562 218.569 103.364 218.569C104.112 218.569 104.738 218.77 105.244 219.171C105.755 219.567 106.021 220.069 106.044 220.675H104.902C104.866 220.328 104.706 220.055 104.424 219.854C104.141 219.654 103.774 219.554 103.323 219.554C102.868 219.554 102.501 219.652 102.223 219.848C101.945 220.044 101.806 220.303 101.806 220.627C101.806 221.119 102.22 221.468 103.05 221.673L104.171 221.953C104.914 222.14 105.436 222.382 105.736 222.678C106.042 222.969 106.194 223.384 106.194 223.922C106.194 224.551 105.921 225.066 105.374 225.467C104.832 225.868 104.134 226.068 103.282 226.068C102.489 226.068 101.831 225.872 101.307 225.48C100.783 225.084 100.491 224.567 100.432 223.929H101.628C101.687 224.302 101.865 224.59 102.161 224.79C102.462 224.986 102.863 225.084 103.364 225.084C103.866 225.084 104.262 224.988 104.554 224.797C104.85 224.601 104.998 224.337 104.998 224.004C104.998 223.744 104.912 223.539 104.738 223.389C104.565 223.234 104.269 223.102 103.85 222.992L102.558 222.657C101.277 222.325 100.637 221.668 100.637 220.688ZM108.554 226V218.631H109.744V226H108.554ZM109.149 217.441C108.944 217.441 108.766 217.368 108.616 217.223C108.47 217.072 108.397 216.895 108.397 216.689C108.397 216.48 108.47 216.302 108.616 216.156C108.766 216.01 108.944 215.938 109.149 215.938C109.358 215.938 109.536 216.01 109.682 216.156C109.828 216.302 109.901 216.48 109.901 216.689C109.901 216.895 109.828 217.072 109.682 217.223C109.536 217.368 109.358 217.441 109.149 217.441ZM114.831 225.036C115.432 225.036 115.929 224.863 116.321 224.517C116.718 224.166 116.916 223.726 116.916 223.197V222.603L114.988 222.726C113.867 222.794 113.306 223.188 113.306 223.908C113.306 224.25 113.443 224.523 113.717 224.729C113.995 224.934 114.366 225.036 114.831 225.036ZM114.578 226.068C113.83 226.068 113.229 225.87 112.773 225.474C112.317 225.077 112.09 224.553 112.09 223.901C112.09 223.268 112.327 222.771 112.801 222.411C113.274 222.047 113.958 221.837 114.851 221.782L116.916 221.659V221.044C116.916 220.588 116.77 220.237 116.478 219.991C116.187 219.745 115.77 219.622 115.227 219.622C114.799 219.622 114.437 219.725 114.14 219.93C113.849 220.135 113.666 220.41 113.594 220.757H112.452C112.47 220.137 112.746 219.618 113.279 219.198C113.812 218.774 114.466 218.562 115.241 218.562C116.111 218.562 116.806 218.779 117.326 219.212C117.845 219.64 118.105 220.217 118.105 220.941V226H116.977V224.722H116.95C116.74 225.132 116.421 225.46 115.993 225.706C115.565 225.948 115.093 226.068 114.578 226.068ZM120.684 226V218.631H121.805V219.827H121.832C122.302 218.984 123.104 218.562 124.238 218.562C125.05 218.562 125.69 218.806 126.159 219.294C126.629 219.777 126.863 220.438 126.863 221.276V226H125.674V221.481C125.674 220.88 125.519 220.42 125.209 220.101C124.904 219.782 124.462 219.622 123.883 219.622C123.277 219.622 122.789 219.813 122.42 220.196C122.055 220.579 121.873 221.087 121.873 221.721V226H120.684ZM133.866 226V215.705H135.055V226H133.866ZM140.143 225.036C140.744 225.036 141.241 224.863 141.633 224.517C142.029 224.166 142.228 223.726 142.228 223.197V222.603L140.3 222.726C139.179 222.794 138.618 223.188 138.618 223.908C138.618 224.25 138.755 224.523 139.028 224.729C139.306 224.934 139.678 225.036 140.143 225.036ZM139.89 226.068C139.142 226.068 138.541 225.87 138.085 225.474C137.629 225.077 137.402 224.553 137.402 223.901C137.402 223.268 137.638 222.771 138.112 222.411C138.586 222.047 139.27 221.837 140.163 221.782L142.228 221.659V221.044C142.228 220.588 142.082 220.237 141.79 219.991C141.499 219.745 141.082 219.622 140.539 219.622C140.111 219.622 139.749 219.725 139.452 219.93C139.161 220.135 138.978 220.41 138.905 220.757H137.764C137.782 220.137 138.058 219.618 138.591 219.198C139.124 218.774 139.778 218.562 140.553 218.562C141.423 218.562 142.118 218.779 142.638 219.212C143.157 219.64 143.417 220.217 143.417 220.941V226H142.289V224.722H142.262C142.052 225.132 141.733 225.46 141.305 225.706C140.876 225.948 140.405 226.068 139.89 226.068ZM145.996 226V218.631H147.117V219.827H147.144C147.613 218.984 148.416 218.562 149.55 218.562C150.361 218.562 151.002 218.806 151.471 219.294C151.941 219.777 152.175 220.438 152.175 221.276V226H150.986V221.481C150.986 220.88 150.831 220.42 150.521 220.101C150.216 219.782 149.774 219.622 149.195 219.622C148.589 219.622 148.101 219.813 147.732 220.196C147.367 220.579 147.185 221.087 147.185 221.721V226H145.996ZM157.741 224.94C158.388 224.94 158.91 224.697 159.306 224.209C159.708 223.717 159.908 223.076 159.908 222.288C159.908 221.495 159.708 220.853 159.306 220.36C158.91 219.868 158.388 219.622 157.741 219.622C157.098 219.622 156.584 219.866 156.196 220.354C155.809 220.837 155.615 221.481 155.615 222.288C155.615 223.09 155.809 223.733 156.196 224.216C156.584 224.699 157.098 224.94 157.741 224.94ZM157.762 228.632C156.928 228.632 156.233 228.445 155.677 228.071C155.121 227.702 154.799 227.212 154.713 226.602H155.95C156.037 226.907 156.249 227.148 156.586 227.326C156.928 227.508 157.342 227.6 157.83 227.6C158.468 227.6 158.974 227.445 159.348 227.135C159.721 226.829 159.908 226.415 159.908 225.891V224.735H159.881C159.648 225.136 159.325 225.449 158.91 225.672C158.495 225.891 158.03 226 157.515 226C156.581 226 155.827 225.66 155.253 224.981C154.683 224.298 154.398 223.4 154.398 222.288C154.398 221.162 154.685 220.26 155.26 219.581C155.834 218.902 156.595 218.562 157.543 218.562C158.062 218.562 158.529 218.672 158.944 218.891C159.363 219.109 159.696 219.422 159.942 219.827H159.963V218.631H161.098V225.795C161.098 226.674 160.799 227.367 160.202 227.873C159.61 228.379 158.796 228.632 157.762 228.632ZM169.863 218.631V226H168.741V224.783H168.714C168.249 225.64 167.445 226.068 166.301 226.068C165.494 226.068 164.856 225.827 164.387 225.344C163.918 224.856 163.683 224.193 163.683 223.354V218.631H164.872V223.149C164.872 223.751 165.025 224.211 165.33 224.53C165.64 224.849 166.085 225.009 166.663 225.009C167.269 225.009 167.755 224.817 168.119 224.435C168.488 224.052 168.673 223.544 168.673 222.91V218.631H169.863ZM174.888 225.036C175.49 225.036 175.987 224.863 176.378 224.517C176.775 224.166 176.973 223.726 176.973 223.197V222.603L175.045 222.726C173.924 222.794 173.364 223.188 173.364 223.908C173.364 224.25 173.501 224.523 173.774 224.729C174.052 224.934 174.423 225.036 174.888 225.036ZM174.635 226.068C173.888 226.068 173.286 225.87 172.831 225.474C172.375 225.077 172.147 224.553 172.147 223.901C172.147 223.268 172.384 222.771 172.858 222.411C173.332 222.047 174.016 221.837 174.909 221.782L176.973 221.659V221.044C176.973 220.588 176.827 220.237 176.536 219.991C176.244 219.745 175.827 219.622 175.285 219.622C174.856 219.622 174.494 219.725 174.198 219.93C173.906 220.135 173.724 220.41 173.651 220.757H172.509C172.528 220.137 172.803 219.618 173.336 219.198C173.87 218.774 174.524 218.562 175.298 218.562C176.169 218.562 176.864 218.779 177.383 219.212C177.903 219.64 178.163 220.217 178.163 220.941V226H177.035V224.722H177.007C176.798 225.132 176.479 225.46 176.05 225.706C175.622 225.948 175.15 226.068 174.635 226.068ZM183.722 224.94C184.369 224.94 184.891 224.697 185.287 224.209C185.688 223.717 185.889 223.076 185.889 222.288C185.889 221.495 185.688 220.853 185.287 220.36C184.891 219.868 184.369 219.622 183.722 219.622C183.079 219.622 182.564 219.866 182.177 220.354C181.789 220.837 181.596 221.481 181.596 222.288C181.596 223.09 181.789 223.733 182.177 224.216C182.564 224.699 183.079 224.94 183.722 224.94ZM183.742 228.632C182.908 228.632 182.213 228.445 181.657 228.071C181.101 227.702 180.78 227.212 180.693 226.602H181.931C182.017 226.907 182.229 227.148 182.566 227.326C182.908 227.508 183.323 227.6 183.81 227.6C184.448 227.6 184.954 227.445 185.328 227.135C185.702 226.829 185.889 226.415 185.889 225.891V224.735H185.861C185.629 225.136 185.305 225.449 184.891 225.672C184.476 225.891 184.011 226 183.496 226C182.562 226 181.808 225.66 181.233 224.981C180.664 224.298 180.379 223.4 180.379 222.288C180.379 221.162 180.666 220.26 181.24 219.581C181.814 218.902 182.575 218.562 183.523 218.562C184.043 218.562 184.51 218.672 184.925 218.891C185.344 219.109 185.677 219.422 185.923 219.827H185.943V218.631H187.078V225.795C187.078 226.674 186.78 227.367 186.183 227.873C185.59 228.379 184.777 228.632 183.742 228.632ZM192.637 219.608C192.058 219.608 191.577 219.8 191.195 220.183C190.816 220.565 190.607 221.069 190.566 221.693H194.619C194.606 221.069 194.417 220.565 194.052 220.183C193.692 219.8 193.22 219.608 192.637 219.608ZM194.592 223.895H195.768C195.668 224.528 195.33 225.05 194.756 225.46C194.182 225.866 193.501 226.068 192.712 226.068C191.678 226.068 190.855 225.733 190.244 225.063C189.638 224.394 189.335 223.487 189.335 222.343C189.335 221.199 189.638 220.283 190.244 219.595C190.851 218.907 191.655 218.562 192.657 218.562C193.642 218.562 194.421 218.888 194.995 219.54C195.57 220.187 195.857 221.067 195.857 222.179V222.644H190.566V222.712C190.566 223.414 190.764 223.974 191.16 224.394C191.557 224.813 192.083 225.022 192.74 225.022C193.2 225.022 193.596 224.922 193.929 224.722C194.266 224.517 194.487 224.241 194.592 223.895Z" fill="black"/>
<path fill-rule="evenodd" clip-rule="evenodd" d="M327.969 231.531C327.899 231.461 327.844 231.379 327.806 231.288C327.768 231.196 327.749 231.099 327.749 231C327.749 230.901 327.768 230.804 327.806 230.713C327.844 230.622 327.899 230.539 327.969 230.469L336.44 222L327.969 213.531C327.828 213.39 327.749 213.199 327.749 213C327.749 212.801 327.828 212.61 327.969 212.469C328.11 212.328 328.301 212.249 328.5 212.249C328.699 212.249 328.89 212.328 329.031 212.469L338.031 221.469C338.101 221.539 338.156 221.622 338.194 221.713C338.232 221.804 338.251 221.901 338.251 222C338.251 222.099 338.232 222.196 338.194 222.288C338.156 222.379 338.101 222.461 338.031 222.531L329.031 231.531C328.961 231.601 328.879 231.656 328.788 231.694C328.696 231.732 328.599 231.751 328.5 231.751C328.401 231.751 328.304 231.732 328.213 231.694C328.122 231.656 328.039 231.601 327.969 231.531V231.531Z" fill="black"/>
<g clip-path="url(#clip1_48_1701)">
<path d="M64 212H32V221H64V212Z" fill="white"/>
<path d="M64 221H32V230H64V221Z" fill="#D52B1E"/>
<path d="M64 218H32V224H64V218Z" fill="#0039A6"/>
</g>
<path d="M131.875 751.25C132.372 751.25 132.849 751.448 133.201 751.799C133.552 752.151 133.75 752.628 133.75 753.125V753.75C133.75 756.214 131.425 758.75 127.5 758.75C123.575 758.75 121.25 756.214 121.25 753.75V753.125C121.25 752.628 121.448 752.151 121.799 751.799C122.151 751.448 122.628 751.25 123.125 751.25H131.875ZM131.875 752.5H123.125C122.959 752.5 122.8 752.566 122.683 752.683C122.566 752.8 122.5 752.959 122.5 753.125V753.75C122.5 755.548 124.29 757.5 127.5 757.5C130.71 757.5 132.5 755.548 132.5 753.75V753.125C132.5 752.959 132.434 752.8 132.317 752.683C132.2 752.566 132.041 752.5 131.875 752.5ZM127.5 743.125C128.412 743.125 129.286 743.487 129.931 744.132C130.575 744.777 130.937 745.651 130.937 746.563C130.937 747.474 130.575 748.349 129.931 748.993C129.286 749.638 128.412 750 127.5 750C126.588 750 125.714 749.638 125.069 748.993C124.425 748.349 124.062 747.474 124.062 746.563C124.062 745.651 124.425 744.777 125.069 744.132C125.714 743.487 126.588 743.125 127.5 743.125V743.125ZM127.5 744.375C126.92 744.375 126.363 744.606 125.953 745.016C125.543 745.426 125.312 745.982 125.312 746.563C125.312 747.143 125.543 747.699 125.953 748.109C126.363 748.52 126.92 748.75 127.5 748.75C128.08 748.75 128.637 748.52 129.047 748.109C129.457 747.699 129.687 747.143 129.687 746.563C129.687 745.982 129.457 745.426 129.047 745.016C128.637 744.606 128.08 744.375 127.5 744.375V744.375ZM133.48 741.361L133.567 741.433L135.625 743.491L137.682 741.433C137.8 741.315 137.959 741.249 138.125 741.249C138.291 741.249 138.45 741.315 138.567 741.433C138.685 741.55 138.751 741.709 138.751 741.875C138.751 742.041 138.685 742.2 138.567 742.318L136.509 744.375L138.567 746.433C138.671 746.536 138.735 746.673 138.748 746.818C138.761 746.964 138.722 747.11 138.639 747.23L138.567 747.318C138.464 747.421 138.327 747.485 138.182 747.498C138.036 747.511 137.89 747.472 137.77 747.389L137.682 747.318L135.625 745.259L133.567 747.318C133.45 747.435 133.291 747.501 133.125 747.501C132.959 747.501 132.8 747.435 132.682 747.318C132.565 747.2 132.499 747.041 132.499 746.875C132.499 746.709 132.565 746.55 132.682 746.433L134.741 744.375L132.682 742.318C132.579 742.214 132.515 742.077 132.502 741.932C132.489 741.786 132.528 741.64 132.611 741.52L132.682 741.433C132.773 741.343 132.889 741.282 133.014 741.26C133.14 741.238 133.269 741.254 133.385 741.308L133.48 741.361Z" fill="#2E00E4"/>
<path d="M150.957 745.136H154.341C155.804 745.136 156.945 745.571 157.766 746.441C158.586 747.307 158.996 748.515 158.996 750.064C158.996 751.618 158.586 752.831 157.766 753.701C156.95 754.567 155.808 755 154.341 755H150.957V745.136ZM152.188 746.243V753.893H154.259C155.375 753.893 156.234 753.564 156.836 752.908C157.438 752.247 157.738 751.304 157.738 750.078C157.738 748.843 157.438 747.895 156.836 747.234C156.239 746.574 155.38 746.243 154.259 746.243H152.188ZM164.316 748.608C163.737 748.608 163.256 748.8 162.873 749.183C162.495 749.565 162.285 750.069 162.244 750.693H166.298C166.285 750.069 166.095 749.565 165.731 749.183C165.371 748.8 164.899 748.608 164.316 748.608ZM166.271 752.895H167.447C167.346 753.528 167.009 754.05 166.435 754.46C165.861 754.866 165.179 755.068 164.391 755.068C163.356 755.068 162.534 754.733 161.923 754.063C161.317 753.394 161.014 752.487 161.014 751.343C161.014 750.199 161.317 749.283 161.923 748.595C162.529 747.907 163.334 747.562 164.336 747.562C165.321 747.562 166.1 747.888 166.674 748.54C167.248 749.187 167.535 750.067 167.535 751.179V751.644H162.244V751.712C162.244 752.414 162.443 752.974 162.839 753.394C163.236 753.813 163.762 754.022 164.418 754.022C164.879 754.022 165.275 753.922 165.608 753.722C165.945 753.517 166.166 753.241 166.271 752.895ZM169.854 755V744.705H171.044V755H169.854ZM176.664 748.608C176.085 748.608 175.605 748.8 175.222 749.183C174.843 749.565 174.634 750.069 174.593 750.693H178.647C178.633 750.069 178.444 749.565 178.079 749.183C177.719 748.8 177.247 748.608 176.664 748.608ZM178.619 752.895H179.795C179.695 753.528 179.357 754.05 178.783 754.46C178.209 754.866 177.528 755.068 176.739 755.068C175.705 755.068 174.882 754.733 174.272 754.063C173.665 753.394 173.362 752.487 173.362 751.343C173.362 750.199 173.665 749.283 174.272 748.595C174.878 747.907 175.682 747.562 176.685 747.562C177.669 747.562 178.448 747.888 179.023 748.54C179.597 749.187 179.884 750.067 179.884 751.179V751.644H174.593V751.712C174.593 752.414 174.791 752.974 175.188 753.394C175.584 753.813 176.11 754.022 176.767 754.022C177.227 754.022 177.623 753.922 177.956 753.722C178.293 753.517 178.514 753.241 178.619 752.895ZM182.524 745.97H183.713V747.631H185.149V748.615H183.713V753.038C183.713 753.375 183.786 753.624 183.932 753.783C184.082 753.943 184.315 754.022 184.629 754.022C184.834 754.022 185.005 754.011 185.142 753.988V754.993C184.969 755.034 184.714 755.055 184.376 755.055C183.711 755.055 183.235 754.904 182.948 754.604C182.665 754.298 182.524 753.792 182.524 753.086V748.615H181.498V747.631H182.524V745.97ZM190.202 748.608C189.623 748.608 189.142 748.8 188.76 749.183C188.381 749.565 188.172 750.069 188.131 750.693H192.184C192.171 750.069 191.982 749.565 191.617 749.183C191.257 748.8 190.785 748.608 190.202 748.608ZM192.157 752.895H193.333C193.233 753.528 192.895 754.05 192.321 754.46C191.747 754.866 191.066 755.068 190.277 755.068C189.243 755.068 188.42 754.733 187.809 754.063C187.203 753.394 186.9 752.487 186.9 751.343C186.9 750.199 187.203 749.283 187.809 748.595C188.415 747.907 189.22 747.562 190.222 747.562C191.207 747.562 191.986 747.888 192.56 748.54C193.135 749.187 193.422 750.067 193.422 751.179V751.644H188.131V751.712C188.131 752.414 188.329 752.974 188.725 753.394C189.122 753.813 189.648 754.022 190.304 754.022C190.765 754.022 191.161 753.922 191.494 753.722C191.831 753.517 192.052 753.241 192.157 752.895ZM202.427 754.036C203.029 754.036 203.526 753.863 203.917 753.517C204.314 753.166 204.512 752.726 204.512 752.197V751.603L202.584 751.726C201.463 751.794 200.903 752.188 200.903 752.908C200.903 753.25 201.04 753.523 201.313 753.729C201.591 753.934 201.962 754.036 202.427 754.036ZM202.174 755.068C201.427 755.068 200.825 754.87 200.37 754.474C199.914 754.077 199.686 753.553 199.686 752.901C199.686 752.268 199.923 751.771 200.397 751.411C200.871 751.047 201.554 750.837 202.448 750.782L204.512 750.659V750.044C204.512 749.588 204.366 749.237 204.075 748.991C203.783 748.745 203.366 748.622 202.824 748.622C202.395 748.622 202.033 748.725 201.737 748.93C201.445 749.135 201.263 749.41 201.19 749.757H200.048C200.067 749.137 200.342 748.618 200.875 748.198C201.409 747.774 202.063 747.562 202.837 747.562C203.708 747.562 204.403 747.779 204.922 748.212C205.442 748.64 205.702 749.217 205.702 749.941V755H204.574V753.722H204.546C204.337 754.132 204.018 754.46 203.589 754.706C203.161 754.948 202.689 755.068 202.174 755.068ZM214.371 750.03H213.202C213.124 749.616 212.919 749.278 212.587 749.019C212.254 748.754 211.821 748.622 211.288 748.622C210.641 748.622 210.119 748.868 209.722 749.36C209.326 749.853 209.128 750.504 209.128 751.315C209.128 752.145 209.326 752.801 209.722 753.284C210.124 753.767 210.65 754.009 211.302 754.009C211.817 754.009 212.238 753.893 212.566 753.66C212.899 753.423 213.115 753.084 213.216 752.642H214.385C214.284 753.366 213.952 753.952 213.387 754.398C212.826 754.845 212.129 755.068 211.295 755.068C210.274 755.068 209.456 754.731 208.841 754.057C208.225 753.378 207.918 752.464 207.918 751.315C207.918 750.185 208.225 749.278 208.841 748.595C209.456 747.907 210.269 747.562 211.281 747.562C212.151 747.562 212.865 747.804 213.421 748.287C213.977 748.766 214.293 749.347 214.371 750.03ZM222.616 750.03H221.447C221.37 749.616 221.165 749.278 220.832 749.019C220.499 748.754 220.067 748.622 219.533 748.622C218.886 748.622 218.364 748.868 217.968 749.36C217.571 749.853 217.373 750.504 217.373 751.315C217.373 752.145 217.571 752.801 217.968 753.284C218.369 753.767 218.895 754.009 219.547 754.009C220.062 754.009 220.484 753.893 220.812 753.66C221.144 753.423 221.361 753.084 221.461 752.642H222.63C222.53 753.366 222.197 753.952 221.632 754.398C221.071 754.845 220.374 755.068 219.54 755.068C218.519 755.068 217.701 754.731 217.086 754.057C216.471 753.378 216.163 752.464 216.163 751.315C216.163 750.185 216.471 749.278 217.086 748.595C217.701 747.907 218.515 747.562 219.527 747.562C220.397 747.562 221.11 747.804 221.666 748.287C222.222 748.766 222.539 749.347 222.616 750.03ZM230.281 754.05C229.666 754.729 228.841 755.068 227.806 755.068C226.772 755.068 225.947 754.729 225.332 754.05C224.716 753.371 224.409 752.459 224.409 751.315C224.409 750.172 224.716 749.26 225.332 748.581C225.947 747.902 226.772 747.562 227.806 747.562C228.841 747.562 229.666 747.902 230.281 748.581C230.896 749.26 231.204 750.172 231.204 751.315C231.204 752.459 230.896 753.371 230.281 754.05ZM227.806 754.009C228.494 754.009 229.03 753.772 229.413 753.298C229.8 752.819 229.994 752.159 229.994 751.315C229.994 750.468 229.8 749.807 229.413 749.333C229.03 748.859 228.494 748.622 227.806 748.622C227.118 748.622 226.58 748.861 226.193 749.34C225.81 749.814 225.619 750.472 225.619 751.315C225.619 752.159 225.812 752.819 226.2 753.298C226.587 753.772 227.123 754.009 227.806 754.009ZM239.599 747.631V755H238.478V753.783H238.451C237.986 754.64 237.182 755.068 236.038 755.068C235.231 755.068 234.593 754.827 234.124 754.344C233.654 753.856 233.42 753.193 233.42 752.354V747.631H234.609V752.149C234.609 752.751 234.762 753.211 235.067 753.53C235.377 753.849 235.821 754.009 236.4 754.009C237.006 754.009 237.492 753.817 237.856 753.435C238.225 753.052 238.41 752.544 238.41 751.91V747.631H239.599ZM242.219 755V747.631H243.34V748.827H243.367C243.837 747.984 244.639 747.562 245.774 747.562C246.585 747.562 247.225 747.806 247.695 748.294C248.164 748.777 248.399 749.438 248.399 750.276V755H247.209V750.481C247.209 749.88 247.054 749.42 246.744 749.101C246.439 748.782 245.997 748.622 245.418 748.622C244.812 748.622 244.324 748.813 243.955 749.196C243.591 749.579 243.408 750.087 243.408 750.721V755H242.219ZM251.374 745.97H252.563V747.631H253.999V748.615H252.563V753.038C252.563 753.375 252.636 753.624 252.782 753.783C252.932 753.943 253.165 754.022 253.479 754.022C253.684 754.022 253.855 754.011 253.992 753.988V754.993C253.819 755.034 253.563 755.055 253.226 755.055C252.561 755.055 252.085 754.904 251.797 754.604C251.515 754.298 251.374 753.792 251.374 753.086V748.615H250.348V747.631H251.374V745.97Z" fill="#2E00E4"/>
<path d="M1 -39H391V1265H1V-39Z" fill="#3D537D" fill-opacity="0.42"/>
<rect x="22" y="298" width="331" height="155" rx="20" fill="white"/>
<path d="M67.1797 324.055L64.5781 333H63.25L60.1797 321.727H61.6484L63.9062 330.93H63.9688L66.5078 321.727H67.9297L70.4688 330.93H70.5312L72.7891 321.727H74.2578L71.1875 333H69.8594L67.2578 324.055H67.1797ZM76.1094 333V321.234H77.4688V325.945H77.5C78.0312 324.982 78.9479 324.5 80.25 324.5C81.1719 324.5 81.9167 324.786 82.4844 325.359C83.0521 325.932 83.3359 326.688 83.3359 327.625V333H81.9766V327.867C81.9766 327.195 81.7865 326.669 81.4062 326.289C81.0312 325.904 80.5104 325.711 79.8438 325.711C79.1302 325.711 78.5547 325.935 78.1172 326.383C77.6849 326.831 77.4688 327.422 77.4688 328.156V333H76.1094ZM89 325.695C88.3385 325.695 87.7891 325.914 87.3516 326.352C86.9193 326.789 86.6797 327.365 86.6328 328.078H91.2656C91.25 327.365 91.0339 326.789 90.6172 326.352C90.2057 325.914 89.6667 325.695 89 325.695ZM91.2344 330.594H92.5781C92.4635 331.318 92.0781 331.914 91.4219 332.383C90.7656 332.846 89.987 333.078 89.0859 333.078C87.9036 333.078 86.9635 332.695 86.2656 331.93C85.5729 331.164 85.2266 330.128 85.2266 328.82C85.2266 327.513 85.5729 326.466 86.2656 325.68C86.9583 324.893 87.8776 324.5 89.0234 324.5C90.1484 324.5 91.0391 324.872 91.6953 325.617C92.3516 326.357 92.6797 327.362 92.6797 328.633V329.164H86.6328V329.242C86.6328 330.044 86.8594 330.685 87.3125 331.164C87.7656 331.643 88.3672 331.883 89.1172 331.883C89.6432 331.883 90.0964 331.768 90.4766 331.539C90.862 331.305 91.1146 330.99 91.2344 330.594ZM94.6094 333V324.578H95.8906V325.945H95.9219C96.4583 324.982 97.375 324.5 98.6719 324.5C99.599 324.5 100.331 324.779 100.867 325.336C101.404 325.888 101.672 326.643 101.672 327.602V333H100.312V327.836C100.312 327.148 100.135 326.622 99.7812 326.258C99.4323 325.893 98.9271 325.711 98.2656 325.711C97.5729 325.711 97.0156 325.93 96.5938 326.367C96.1771 326.805 95.9688 327.385 95.9688 328.109V333H94.6094ZM111.508 333.078C110.445 333.078 109.578 332.685 108.906 331.898C108.234 331.107 107.898 330.07 107.898 328.789C107.898 327.513 108.232 326.479 108.898 325.688C109.565 324.896 110.424 324.5 111.477 324.5C112.076 324.5 112.607 324.625 113.07 324.875C113.539 325.125 113.904 325.482 114.164 325.945H114.195V321.234H115.555V333H114.258V331.578H114.234C113.958 332.062 113.586 332.435 113.117 332.695C112.654 332.951 112.117 333.078 111.508 333.078ZM111.75 325.711C111.01 325.711 110.414 325.992 109.961 326.555C109.513 327.117 109.289 327.862 109.289 328.789C109.289 329.721 109.513 330.469 109.961 331.031C110.414 331.589 111.01 331.867 111.75 331.867C112.479 331.867 113.07 331.583 113.523 331.016C113.977 330.448 114.203 329.706 114.203 328.789C114.203 327.872 113.977 327.13 113.523 326.562C113.07 325.995 112.479 325.711 111.75 325.711ZM121.344 325.695C120.682 325.695 120.133 325.914 119.695 326.352C119.263 326.789 119.023 327.365 118.977 328.078H123.609C123.594 327.365 123.378 326.789 122.961 326.352C122.549 325.914 122.01 325.695 121.344 325.695ZM123.578 330.594H124.922C124.807 331.318 124.422 331.914 123.766 332.383C123.109 332.846 122.331 333.078 121.43 333.078C120.247 333.078 119.307 332.695 118.609 331.93C117.917 331.164 117.57 330.128 117.57 328.82C117.57 327.513 117.917 326.466 118.609 325.68C119.302 324.893 120.221 324.5 121.367 324.5C122.492 324.5 123.383 324.872 124.039 325.617C124.695 326.357 125.023 327.362 125.023 328.633V329.164H118.977V329.242C118.977 330.044 119.203 330.685 119.656 331.164C120.109 331.643 120.711 331.883 121.461 331.883C121.987 331.883 122.44 331.768 122.82 331.539C123.206 331.305 123.458 330.99 123.578 330.594ZM127.031 333V321.234H128.391V333H127.031ZM134.172 325.695C133.51 325.695 132.961 325.914 132.523 326.352C132.091 326.789 131.852 327.365 131.805 328.078H136.438C136.422 327.365 136.206 326.789 135.789 326.352C135.378 325.914 134.839 325.695 134.172 325.695ZM136.406 330.594H137.75C137.635 331.318 137.25 331.914 136.594 332.383C135.938 332.846 135.159 333.078 134.258 333.078C133.076 333.078 132.135 332.695 131.438 331.93C130.745 331.164 130.398 330.128 130.398 328.82C130.398 327.513 130.745 326.466 131.438 325.68C132.13 324.893 133.049 324.5 134.195 324.5C135.32 324.5 136.211 324.872 136.867 325.617C137.523 326.357 137.852 327.362 137.852 328.633V329.164H131.805V329.242C131.805 330.044 132.031 330.685 132.484 331.164C132.938 331.643 133.539 331.883 134.289 331.883C134.815 331.883 135.268 331.768 135.648 331.539C136.034 331.305 136.286 330.99 136.406 330.594ZM140.227 322.68H141.586V324.578H143.227V325.703H141.586V330.758C141.586 331.143 141.669 331.427 141.836 331.609C142.008 331.792 142.273 331.883 142.633 331.883C142.867 331.883 143.062 331.87 143.219 331.844V332.992C143.021 333.039 142.729 333.062 142.344 333.062C141.583 333.062 141.039 332.891 140.711 332.547C140.388 332.198 140.227 331.62 140.227 330.812V325.703H139.055V324.578H140.227V322.68ZM148.359 325.695C147.698 325.695 147.148 325.914 146.711 326.352C146.279 326.789 146.039 327.365 145.992 328.078H150.625C150.609 327.365 150.393 326.789 149.977 326.352C149.565 325.914 149.026 325.695 148.359 325.695ZM150.594 330.594H151.938C151.823 331.318 151.438 331.914 150.781 332.383C150.125 332.846 149.346 333.078 148.445 333.078C147.263 333.078 146.323 332.695 145.625 331.93C144.932 331.164 144.586 330.128 144.586 328.82C144.586 327.513 144.932 326.466 145.625 325.68C146.318 324.893 147.237 324.5 148.383 324.5C149.508 324.5 150.398 324.872 151.055 325.617C151.711 326.357 152.039 327.362 152.039 328.633V329.164H145.992V329.242C145.992 330.044 146.219 330.685 146.672 331.164C147.125 331.643 147.727 331.883 148.477 331.883C149.003 331.883 149.456 331.768 149.836 331.539C150.221 331.305 150.474 330.99 150.594 330.594ZM157.164 333.078C156.102 333.078 155.234 332.685 154.562 331.898C153.891 331.107 153.555 330.07 153.555 328.789C153.555 327.513 153.888 326.479 154.555 325.688C155.221 324.896 156.081 324.5 157.133 324.5C157.732 324.5 158.263 324.625 158.727 324.875C159.195 325.125 159.56 325.482 159.82 325.945H159.852V321.234H161.211V333H159.914V331.578H159.891C159.615 332.062 159.242 332.435 158.773 332.695C158.31 332.951 157.773 333.078 157.164 333.078ZM157.406 325.711C156.667 325.711 156.07 325.992 155.617 326.555C155.169 327.117 154.945 327.862 154.945 328.789C154.945 329.721 155.169 330.469 155.617 331.031C156.07 331.589 156.667 331.867 157.406 331.867C158.135 331.867 158.727 331.583 159.18 331.016C159.633 330.448 159.859 329.706 159.859 328.789C159.859 327.872 159.633 327.13 159.18 326.562C158.727 325.995 158.135 325.711 157.406 325.711ZM164.547 335.008H163.492L164.273 331.422H165.719L164.547 335.008ZM173.117 322.68H174.477V324.578H176.117V325.703H174.477V330.758C174.477 331.143 174.56 331.427 174.727 331.609C174.898 331.792 175.164 331.883 175.523 331.883C175.758 331.883 175.953 331.87 176.109 331.844V332.992C175.911 333.039 175.62 333.062 175.234 333.062C174.474 333.062 173.93 332.891 173.602 332.547C173.279 332.198 173.117 331.62 173.117 330.812V325.703H171.945V324.578H173.117V322.68ZM178.203 333V321.234H179.562V325.945H179.594C180.125 324.982 181.042 324.5 182.344 324.5C183.266 324.5 184.01 324.786 184.578 325.359C185.146 325.932 185.43 326.688 185.43 327.625V333H184.07V327.867C184.07 327.195 183.88 326.669 183.5 326.289C183.125 325.904 182.604 325.711 181.938 325.711C181.224 325.711 180.648 325.935 180.211 326.383C179.779 326.831 179.562 327.422 179.562 328.156V333H178.203ZM191.094 325.695C190.432 325.695 189.883 325.914 189.445 326.352C189.013 326.789 188.773 327.365 188.727 328.078H193.359C193.344 327.365 193.128 326.789 192.711 326.352C192.299 325.914 191.76 325.695 191.094 325.695ZM193.328 330.594H194.672C194.557 331.318 194.172 331.914 193.516 332.383C192.859 332.846 192.081 333.078 191.18 333.078C189.997 333.078 189.057 332.695 188.359 331.93C187.667 331.164 187.32 330.128 187.32 328.82C187.32 327.513 187.667 326.466 188.359 325.68C189.052 324.893 189.971 324.5 191.117 324.5C192.242 324.5 193.133 324.872 193.789 325.617C194.445 326.357 194.773 327.362 194.773 328.633V329.164H188.727V329.242C188.727 330.044 188.953 330.685 189.406 331.164C189.859 331.643 190.461 331.883 191.211 331.883C191.737 331.883 192.19 331.768 192.57 331.539C192.956 331.305 193.208 330.99 193.328 330.594ZM203.781 331.898C204.469 331.898 205.036 331.701 205.484 331.305C205.938 330.904 206.164 330.401 206.164 329.797V329.117L203.961 329.258C202.68 329.336 202.039 329.786 202.039 330.609C202.039 331 202.195 331.312 202.508 331.547C202.826 331.781 203.25 331.898 203.781 331.898ZM203.492 333.078C202.638 333.078 201.951 332.852 201.43 332.398C200.909 331.945 200.648 331.346 200.648 330.602C200.648 329.878 200.919 329.31 201.461 328.898C202.003 328.482 202.784 328.242 203.805 328.18L206.164 328.039V327.336C206.164 326.815 205.997 326.414 205.664 326.133C205.331 325.852 204.854 325.711 204.234 325.711C203.745 325.711 203.331 325.828 202.992 326.062C202.659 326.297 202.451 326.612 202.367 327.008H201.062C201.083 326.299 201.398 325.706 202.008 325.227C202.617 324.742 203.365 324.5 204.25 324.5C205.245 324.5 206.039 324.747 206.633 325.242C207.227 325.732 207.523 326.391 207.523 327.219V333H206.234V331.539H206.203C205.964 332.008 205.599 332.383 205.109 332.664C204.62 332.94 204.081 333.078 203.492 333.078ZM216.789 327.32H215.453C215.365 326.846 215.13 326.461 214.75 326.164C214.37 325.862 213.875 325.711 213.266 325.711C212.526 325.711 211.93 325.992 211.477 326.555C211.023 327.117 210.797 327.862 210.797 328.789C210.797 329.737 211.023 330.487 211.477 331.039C211.935 331.591 212.536 331.867 213.281 331.867C213.87 331.867 214.352 331.734 214.727 331.469C215.107 331.198 215.354 330.81 215.469 330.305H216.805C216.69 331.133 216.31 331.802 215.664 332.312C215.023 332.823 214.227 333.078 213.273 333.078C212.107 333.078 211.172 332.693 210.469 331.922C209.766 331.146 209.414 330.102 209.414 328.789C209.414 327.497 209.766 326.461 210.469 325.68C211.172 324.893 212.102 324.5 213.258 324.5C214.253 324.5 215.068 324.776 215.703 325.328C216.339 325.875 216.701 326.539 216.789 327.32ZM225.57 327.32H224.234C224.146 326.846 223.911 326.461 223.531 326.164C223.151 325.862 222.656 325.711 222.047 325.711C221.307 325.711 220.711 325.992 220.258 326.555C219.805 327.117 219.578 327.862 219.578 328.789C219.578 329.737 219.805 330.487 220.258 331.039C220.716 331.591 221.318 331.867 222.062 331.867C222.651 331.867 223.133 331.734 223.508 331.469C223.888 331.198 224.135 330.81 224.25 330.305H225.586C225.471 331.133 225.091 331.802 224.445 332.312C223.805 332.823 223.008 333.078 222.055 333.078C220.888 333.078 219.953 332.693 219.25 331.922C218.547 331.146 218.195 330.102 218.195 328.789C218.195 327.497 218.547 326.461 219.25 325.68C219.953 324.893 220.883 324.5 222.039 324.5C223.034 324.5 223.849 324.776 224.484 325.328C225.12 325.875 225.482 326.539 225.57 327.32ZM233.688 331.914C232.984 332.69 232.042 333.078 230.859 333.078C229.677 333.078 228.734 332.69 228.031 331.914C227.328 331.138 226.977 330.096 226.977 328.789C226.977 327.482 227.328 326.44 228.031 325.664C228.734 324.888 229.677 324.5 230.859 324.5C232.042 324.5 232.984 324.888 233.688 325.664C234.391 326.44 234.742 327.482 234.742 328.789C234.742 330.096 234.391 331.138 233.688 331.914ZM230.859 331.867C231.646 331.867 232.258 331.596 232.695 331.055C233.138 330.508 233.359 329.753 233.359 328.789C233.359 327.82 233.138 327.065 232.695 326.523C232.258 325.982 231.646 325.711 230.859 325.711C230.073 325.711 229.458 325.984 229.016 326.531C228.578 327.073 228.359 327.826 228.359 328.789C228.359 329.753 228.581 330.508 229.023 331.055C229.466 331.596 230.078 331.867 230.859 331.867ZM243.695 324.578V333H242.414V331.609H242.383C241.852 332.589 240.932 333.078 239.625 333.078C238.703 333.078 237.974 332.802 237.438 332.25C236.901 331.693 236.633 330.935 236.633 329.977V324.578H237.992V329.742C237.992 330.43 238.167 330.956 238.516 331.32C238.87 331.685 239.378 331.867 240.039 331.867C240.732 331.867 241.286 331.648 241.703 331.211C242.125 330.773 242.336 330.193 242.336 329.469V324.578H243.695ZM246.047 333V324.578H247.328V325.945H247.359C247.896 324.982 248.812 324.5 250.109 324.5C251.036 324.5 251.768 324.779 252.305 325.336C252.841 325.888 253.109 326.643 253.109 327.602V333H251.75V327.836C251.75 327.148 251.573 326.622 251.219 326.258C250.87 325.893 250.365 325.711 249.703 325.711C249.01 325.711 248.453 325.93 248.031 326.367C247.615 326.805 247.406 327.385 247.406 328.109V333H246.047ZM255.867 322.68H257.227V324.578H258.867V325.703H257.227V330.758C257.227 331.143 257.31 331.427 257.477 331.609C257.648 331.792 257.914 331.883 258.273 331.883C258.508 331.883 258.703 331.87 258.859 331.844V332.992C258.661 333.039 258.37 333.062 257.984 333.062C257.224 333.062 256.68 332.891 256.352 332.547C256.029 332.198 255.867 331.62 255.867 330.812V325.703H254.695V324.578H255.867V322.68ZM272.164 327.32H270.828C270.74 326.846 270.505 326.461 270.125 326.164C269.745 325.862 269.25 325.711 268.641 325.711C267.901 325.711 267.305 325.992 266.852 326.555C266.398 327.117 266.172 327.862 266.172 328.789C266.172 329.737 266.398 330.487 266.852 331.039C267.31 331.591 267.911 331.867 268.656 331.867C269.245 331.867 269.727 331.734 270.102 331.469C270.482 331.198 270.729 330.81 270.844 330.305H272.18C272.065 331.133 271.685 331.802 271.039 332.312C270.398 332.823 269.602 333.078 268.648 333.078C267.482 333.078 266.547 332.693 265.844 331.922C265.141 331.146 264.789 330.102 264.789 328.789C264.789 327.497 265.141 326.461 265.844 325.68C266.547 324.893 267.477 324.5 268.633 324.5C269.628 324.5 270.443 324.776 271.078 325.328C271.714 325.875 272.076 326.539 272.164 327.32ZM276.734 331.898C277.422 331.898 277.99 331.701 278.438 331.305C278.891 330.904 279.117 330.401 279.117 329.797V329.117L276.914 329.258C275.633 329.336 274.992 329.786 274.992 330.609C274.992 331 275.148 331.312 275.461 331.547C275.779 331.781 276.203 331.898 276.734 331.898ZM276.445 333.078C275.591 333.078 274.904 332.852 274.383 332.398C273.862 331.945 273.602 331.346 273.602 330.602C273.602 329.878 273.872 329.31 274.414 328.898C274.956 328.482 275.737 328.242 276.758 328.18L279.117 328.039V327.336C279.117 326.815 278.951 326.414 278.617 326.133C278.284 325.852 277.807 325.711 277.188 325.711C276.698 325.711 276.284 325.828 275.945 326.062C275.612 326.297 275.404 326.612 275.32 327.008H274.016C274.036 326.299 274.352 325.706 274.961 325.227C275.57 324.742 276.318 324.5 277.203 324.5C278.198 324.5 278.992 324.747 279.586 325.242C280.18 325.732 280.477 326.391 280.477 327.219V333H279.188V331.539H279.156C278.917 332.008 278.552 332.383 278.062 332.664C277.573 332.94 277.034 333.078 276.445 333.078ZM282.781 333V324.578H284.062V325.945H284.094C284.63 324.982 285.547 324.5 286.844 324.5C287.771 324.5 288.503 324.779 289.039 325.336C289.576 325.888 289.844 326.643 289.844 327.602V333H288.484V327.836C288.484 327.148 288.307 326.622 287.953 326.258C287.604 325.893 287.099 325.711 286.438 325.711C285.745 325.711 285.188 325.93 284.766 326.367C284.349 326.805 284.141 327.385 284.141 328.109V333H282.781ZM292.156 333V324.578H293.438V325.945H293.469C294.005 324.982 294.922 324.5 296.219 324.5C297.146 324.5 297.878 324.779 298.414 325.336C298.951 325.888 299.219 326.643 299.219 327.602V333H297.859V327.836C297.859 327.148 297.682 326.622 297.328 326.258C296.979 325.893 296.474 325.711 295.812 325.711C295.12 325.711 294.562 325.93 294.141 326.367C293.724 326.805 293.516 327.385 293.516 328.109V333H292.156ZM307.828 331.914C307.125 332.69 306.182 333.078 305 333.078C303.818 333.078 302.875 332.69 302.172 331.914C301.469 331.138 301.117 330.096 301.117 328.789C301.117 327.482 301.469 326.44 302.172 325.664C302.875 324.888 303.818 324.5 305 324.5C306.182 324.5 307.125 324.888 307.828 325.664C308.531 326.44 308.883 327.482 308.883 328.789C308.883 330.096 308.531 331.138 307.828 331.914ZM305 331.867C305.786 331.867 306.398 331.596 306.836 331.055C307.279 330.508 307.5 329.753 307.5 328.789C307.5 327.82 307.279 327.065 306.836 326.523C306.398 325.982 305.786 325.711 305 325.711C304.214 325.711 303.599 325.984 303.156 326.531C302.719 327.073 302.5 327.826 302.5 328.789C302.5 329.753 302.721 330.508 303.164 331.055C303.607 331.596 304.219 331.867 305 331.867ZM311.258 322.68H312.617V324.578H314.258V325.703H312.617V330.758C312.617 331.143 312.701 331.427 312.867 331.609C313.039 331.792 313.305 331.883 313.664 331.883C313.898 331.883 314.094 331.87 314.25 331.844V332.992C314.052 333.039 313.76 333.062 313.375 333.062C312.615 333.062 312.07 332.891 311.742 332.547C311.419 332.198 311.258 331.62 311.258 330.812V325.703H310.086V324.578H311.258V322.68ZM57.1641 351.078C56.5495 351.078 56.0078 350.951 55.5391 350.695C55.0703 350.435 54.6979 350.062 54.4219 349.578H54.3906V351H53.1016V339.234H54.4609V343.945H54.4922C54.7578 343.482 55.125 343.125 55.5938 342.875C56.0625 342.625 56.5964 342.5 57.1953 342.5C58.2578 342.5 59.1172 342.896 59.7734 343.688C60.4297 344.474 60.7578 345.508 60.7578 346.789C60.7578 348.076 60.4271 349.112 59.7656 349.898C59.1094 350.685 58.2422 351.078 57.1641 351.078ZM56.9219 343.711C56.1875 343.711 55.5911 343.997 55.1328 344.57C54.6797 345.138 54.4531 345.878 54.4531 346.789C54.4531 347.706 54.6797 348.448 55.1328 349.016C55.5911 349.583 56.1875 349.867 56.9219 349.867C57.6615 349.867 58.2526 349.589 58.6953 349.031C59.1432 348.474 59.3672 347.727 59.3672 346.789C59.3672 345.857 59.1432 345.112 58.6953 344.555C58.2526 343.992 57.6615 343.711 56.9219 343.711ZM66.0547 343.695C65.3932 343.695 64.8438 343.914 64.4062 344.352C63.974 344.789 63.7344 345.365 63.6875 346.078H68.3203C68.3047 345.365 68.0885 344.789 67.6719 344.352C67.2604 343.914 66.7214 343.695 66.0547 343.695ZM68.2891 348.594H69.6328C69.5182 349.318 69.1328 349.914 68.4766 350.383C67.8203 350.846 67.0417 351.078 66.1406 351.078C64.9583 351.078 64.0182 350.695 63.3203 349.93C62.6276 349.164 62.2812 348.128 62.2812 346.82C62.2812 345.513 62.6276 344.466 63.3203 343.68C64.013 342.893 64.9323 342.5 66.0781 342.5C67.2031 342.5 68.0938 342.872 68.75 343.617C69.4062 344.357 69.7344 345.362 69.7344 346.633V347.164H63.6875V347.242C63.6875 348.044 63.9141 348.685 64.3672 349.164C64.8203 349.643 65.4219 349.883 66.1719 349.883C66.6979 349.883 67.151 349.768 67.5312 349.539C67.9167 349.305 68.1693 348.99 68.2891 348.594ZM75.9922 351V342.578H77.2734V343.945H77.3047C77.4297 343.503 77.6771 343.151 78.0469 342.891C78.4167 342.63 78.849 342.5 79.3438 342.5C79.5573 342.5 79.7318 342.518 79.8672 342.555V343.898C79.7214 343.836 79.487 343.805 79.1641 343.805C78.6172 343.805 78.1771 343.987 77.8438 344.352C77.5156 344.716 77.3516 345.195 77.3516 345.789V351H75.9922ZM84.5391 343.695C83.8776 343.695 83.3281 343.914 82.8906 344.352C82.4583 344.789 82.2188 345.365 82.1719 346.078H86.8047C86.7891 345.365 86.5729 344.789 86.1562 344.352C85.7448 343.914 85.2057 343.695 84.5391 343.695ZM86.7734 348.594H88.1172C88.0026 349.318 87.6172 349.914 86.9609 350.383C86.3047 350.846 85.526 351.078 84.625 351.078C83.4427 351.078 82.5026 350.695 81.8047 349.93C81.112 349.164 80.7656 348.128 80.7656 346.82C80.7656 345.513 81.112 344.466 81.8047 343.68C82.4974 342.893 83.4167 342.5 84.5625 342.5C85.6875 342.5 86.5781 342.872 87.2344 343.617C87.8906 344.357 88.2188 345.362 88.2188 346.633V347.164H82.1719V347.242C82.1719 348.044 82.3984 348.685 82.8516 349.164C83.3047 349.643 83.9062 349.883 84.6562 349.883C85.1823 349.883 85.6354 349.768 86.0156 349.539C86.401 349.305 86.6536 348.99 86.7734 348.594ZM90.0078 344.93C90.0078 344.221 90.2969 343.641 90.875 343.188C91.4583 342.734 92.2083 342.508 93.125 342.508C93.9792 342.508 94.6953 342.737 95.2734 343.195C95.8568 343.648 96.1615 344.221 96.1875 344.914H94.8828C94.8411 344.518 94.6589 344.206 94.3359 343.977C94.013 343.747 93.5938 343.633 93.0781 343.633C92.5573 343.633 92.138 343.745 91.8203 343.969C91.5026 344.193 91.3438 344.49 91.3438 344.859C91.3438 345.422 91.8177 345.82 92.7656 346.055L94.0469 346.375C94.8958 346.589 95.4922 346.865 95.8359 347.203C96.1849 347.536 96.3594 348.01 96.3594 348.625C96.3594 349.344 96.0469 349.932 95.4219 350.391C94.8021 350.849 94.0052 351.078 93.0312 351.078C92.125 351.078 91.3724 350.854 90.7734 350.406C90.1745 349.953 89.8411 349.362 89.7734 348.633H91.1406C91.2083 349.06 91.4115 349.388 91.75 349.617C92.0938 349.841 92.5521 349.953 93.125 349.953C93.6979 349.953 94.151 349.844 94.4844 349.625C94.8229 349.401 94.9922 349.099 94.9922 348.719C94.9922 348.422 94.8932 348.188 94.6953 348.016C94.4974 347.839 94.1589 347.688 93.6797 347.562L92.2031 347.18C90.7396 346.799 90.0078 346.049 90.0078 344.93ZM98.7812 340.68H100.141V342.578H101.781V343.703H100.141V348.758C100.141 349.143 100.224 349.427 100.391 349.609C100.562 349.792 100.828 349.883 101.188 349.883C101.422 349.883 101.617 349.87 101.773 349.844V350.992C101.576 351.039 101.284 351.062 100.898 351.062C100.138 351.062 99.5938 350.891 99.2656 350.547C98.9427 350.198 98.7812 349.62 98.7812 348.812V343.703H97.6094V342.578H98.7812V340.68ZM109.852 349.914C109.148 350.69 108.206 351.078 107.023 351.078C105.841 351.078 104.898 350.69 104.195 349.914C103.492 349.138 103.141 348.096 103.141 346.789C103.141 345.482 103.492 344.44 104.195 343.664C104.898 342.888 105.841 342.5 107.023 342.5C108.206 342.5 109.148 342.888 109.852 343.664C110.555 344.44 110.906 345.482 110.906 346.789C110.906 348.096 110.555 349.138 109.852 349.914ZM107.023 349.867C107.81 349.867 108.422 349.596 108.859 349.055C109.302 348.508 109.523 347.753 109.523 346.789C109.523 345.82 109.302 345.065 108.859 344.523C108.422 343.982 107.81 343.711 107.023 343.711C106.237 343.711 105.622 343.984 105.18 344.531C104.742 345.073 104.523 345.826 104.523 346.789C104.523 347.753 104.745 348.508 105.188 349.055C105.63 349.596 106.242 349.867 107.023 349.867ZM112.836 351V342.578H114.117V343.945H114.148C114.273 343.503 114.521 343.151 114.891 342.891C115.26 342.63 115.693 342.5 116.188 342.5C116.401 342.5 116.576 342.518 116.711 342.555V343.898C116.565 343.836 116.331 343.805 116.008 343.805C115.461 343.805 115.021 343.987 114.688 344.352C114.359 344.716 114.195 345.195 114.195 345.789V351H112.836ZM121.383 343.695C120.721 343.695 120.172 343.914 119.734 344.352C119.302 344.789 119.062 345.365 119.016 346.078H123.648C123.633 345.365 123.417 344.789 123 344.352C122.589 343.914 122.049 343.695 121.383 343.695ZM123.617 348.594H124.961C124.846 349.318 124.461 349.914 123.805 350.383C123.148 350.846 122.37 351.078 121.469 351.078C120.286 351.078 119.346 350.695 118.648 349.93C117.956 349.164 117.609 348.128 117.609 346.82C117.609 345.513 117.956 344.466 118.648 343.68C119.341 342.893 120.26 342.5 121.406 342.5C122.531 342.5 123.422 342.872 124.078 343.617C124.734 344.357 125.062 345.362 125.062 346.633V347.164H119.016V347.242C119.016 348.044 119.242 348.685 119.695 349.164C120.148 349.643 120.75 349.883 121.5 349.883C122.026 349.883 122.479 349.768 122.859 349.539C123.245 349.305 123.497 348.99 123.617 348.594ZM130.188 351.078C129.125 351.078 128.258 350.685 127.586 349.898C126.914 349.107 126.578 348.07 126.578 346.789C126.578 345.513 126.911 344.479 127.578 343.688C128.245 342.896 129.104 342.5 130.156 342.5C130.755 342.5 131.286 342.625 131.75 342.875C132.219 343.125 132.583 343.482 132.844 343.945H132.875V339.234H134.234V351H132.938V349.578H132.914C132.638 350.062 132.266 350.435 131.797 350.695C131.333 350.951 130.797 351.078 130.188 351.078ZM130.43 343.711C129.69 343.711 129.094 343.992 128.641 344.555C128.193 345.117 127.969 345.862 127.969 346.789C127.969 347.721 128.193 348.469 128.641 349.031C129.094 349.589 129.69 349.867 130.43 349.867C131.159 349.867 131.75 349.583 132.203 349.016C132.656 348.448 132.883 347.706 132.883 346.789C132.883 345.872 132.656 345.13 132.203 344.562C131.75 343.995 131.159 343.711 130.43 343.711ZM137.773 351.078C137.523 351.078 137.312 350.992 137.141 350.82C136.969 350.648 136.883 350.438 136.883 350.188C136.883 349.932 136.969 349.721 137.141 349.555C137.312 349.383 137.523 349.297 137.773 349.297C138.029 349.297 138.24 349.383 138.406 349.555C138.578 349.721 138.664 349.932 138.664 350.188C138.664 350.438 138.578 350.648 138.406 350.82C138.24 350.992 138.029 351.078 137.773 351.078ZM153.055 351L151.922 347.773H147.438L146.305 351H144.828L148.984 339.727H150.375L154.531 351H153.055ZM149.656 341.438L147.852 346.578H151.508L149.703 341.438H149.656ZM156.148 351V342.578H157.43V343.945H157.461C157.586 343.503 157.833 343.151 158.203 342.891C158.573 342.63 159.005 342.5 159.5 342.5C159.714 342.5 159.888 342.518 160.023 342.555V343.898C159.878 343.836 159.643 343.805 159.32 343.805C158.773 343.805 158.333 343.987 158 344.352C157.672 344.716 157.508 345.195 157.508 345.789V351H156.148ZM164.695 343.695C164.034 343.695 163.484 343.914 163.047 344.352C162.615 344.789 162.375 345.365 162.328 346.078H166.961C166.945 345.365 166.729 344.789 166.312 344.352C165.901 343.914 165.362 343.695 164.695 343.695ZM166.93 348.594H168.273C168.159 349.318 167.773 349.914 167.117 350.383C166.461 350.846 165.682 351.078 164.781 351.078C163.599 351.078 162.659 350.695 161.961 349.93C161.268 349.164 160.922 348.128 160.922 346.82C160.922 345.513 161.268 344.466 161.961 343.68C162.654 342.893 163.573 342.5 164.719 342.5C165.844 342.5 166.734 342.872 167.391 343.617C168.047 344.357 168.375 345.362 168.375 346.633V347.164H162.328V347.242C162.328 348.044 162.555 348.685 163.008 349.164C163.461 349.643 164.062 349.883 164.812 349.883C165.339 349.883 165.792 349.768 166.172 349.539C166.557 349.305 166.81 348.99 166.93 348.594ZM175.352 354.055C175.148 354.055 174.951 354.036 174.758 354V352.852C174.914 352.883 175.099 352.898 175.312 352.898C175.703 352.898 176.016 352.792 176.25 352.578C176.484 352.37 176.688 352.013 176.859 351.508L177.023 351.008L173.906 342.578H175.352L177.711 349.617H177.742L180.102 342.578H181.531L178.234 351.516C177.875 352.49 177.49 353.156 177.078 353.516C176.672 353.875 176.096 354.055 175.352 354.055ZM189.211 349.914C188.508 350.69 187.565 351.078 186.383 351.078C185.201 351.078 184.258 350.69 183.555 349.914C182.852 349.138 182.5 348.096 182.5 346.789C182.5 345.482 182.852 344.44 183.555 343.664C184.258 342.888 185.201 342.5 186.383 342.5C187.565 342.5 188.508 342.888 189.211 343.664C189.914 344.44 190.266 345.482 190.266 346.789C190.266 348.096 189.914 349.138 189.211 349.914ZM186.383 349.867C187.169 349.867 187.781 349.596 188.219 349.055C188.661 348.508 188.883 347.753 188.883 346.789C188.883 345.82 188.661 345.065 188.219 344.523C187.781 343.982 187.169 343.711 186.383 343.711C185.596 343.711 184.982 343.984 184.539 344.531C184.102 345.073 183.883 345.826 183.883 346.789C183.883 347.753 184.104 348.508 184.547 349.055C184.99 349.596 185.602 349.867 186.383 349.867ZM199.219 342.578V351H197.938V349.609H197.906C197.375 350.589 196.456 351.078 195.148 351.078C194.227 351.078 193.497 350.802 192.961 350.25C192.424 349.693 192.156 348.935 192.156 347.977V342.578H193.516V347.742C193.516 348.43 193.69 348.956 194.039 349.32C194.393 349.685 194.901 349.867 195.562 349.867C196.255 349.867 196.81 349.648 197.227 349.211C197.648 348.773 197.859 348.193 197.859 347.469V342.578H199.219ZM205.758 344.93C205.758 344.221 206.047 343.641 206.625 343.188C207.208 342.734 207.958 342.508 208.875 342.508C209.729 342.508 210.445 342.737 211.023 343.195C211.607 343.648 211.911 344.221 211.938 344.914H210.633C210.591 344.518 210.409 344.206 210.086 343.977C209.763 343.747 209.344 343.633 208.828 343.633C208.307 343.633 207.888 343.745 207.57 343.969C207.253 344.193 207.094 344.49 207.094 344.859C207.094 345.422 207.568 345.82 208.516 346.055L209.797 346.375C210.646 346.589 211.242 346.865 211.586 347.203C211.935 347.536 212.109 348.01 212.109 348.625C212.109 349.344 211.797 349.932 211.172 350.391C210.552 350.849 209.755 351.078 208.781 351.078C207.875 351.078 207.122 350.854 206.523 350.406C205.924 349.953 205.591 349.362 205.523 348.633H206.891C206.958 349.06 207.161 349.388 207.5 349.617C207.844 349.841 208.302 349.953 208.875 349.953C209.448 349.953 209.901 349.844 210.234 349.625C210.573 349.401 210.742 349.099 210.742 348.719C210.742 348.422 210.643 348.188 210.445 348.016C210.247 347.839 209.909 347.688 209.43 347.562L207.953 347.18C206.49 346.799 205.758 346.049 205.758 344.93ZM221.109 342.578V351H219.828V349.609H219.797C219.266 350.589 218.346 351.078 217.039 351.078C216.117 351.078 215.388 350.802 214.852 350.25C214.315 349.693 214.047 348.935 214.047 347.977V342.578H215.406V347.742C215.406 348.43 215.581 348.956 215.93 349.32C216.284 349.685 216.792 349.867 217.453 349.867C218.146 349.867 218.701 349.648 219.117 349.211C219.539 348.773 219.75 348.193 219.75 347.469V342.578H221.109ZM223.461 351V342.578H224.742V343.945H224.773C224.898 343.503 225.146 343.151 225.516 342.891C225.885 342.63 226.318 342.5 226.812 342.5C227.026 342.5 227.201 342.518 227.336 342.555V343.898C227.19 343.836 226.956 343.805 226.633 343.805C226.086 343.805 225.646 343.987 225.312 344.352C224.984 344.716 224.82 345.195 224.82 345.789V351H223.461ZM232.008 343.695C231.346 343.695 230.797 343.914 230.359 344.352C229.927 344.789 229.688 345.365 229.641 346.078H234.273C234.258 345.365 234.042 344.789 233.625 344.352C233.214 343.914 232.674 343.695 232.008 343.695ZM234.242 348.594H235.586C235.471 349.318 235.086 349.914 234.43 350.383C233.773 350.846 232.995 351.078 232.094 351.078C230.911 351.078 229.971 350.695 229.273 349.93C228.581 349.164 228.234 348.128 228.234 346.82C228.234 345.513 228.581 344.466 229.273 343.68C229.966 342.893 230.885 342.5 232.031 342.5C233.156 342.5 234.047 342.872 234.703 343.617C235.359 344.357 235.688 345.362 235.688 346.633V347.164H229.641V347.242C229.641 348.044 229.867 348.685 230.32 349.164C230.773 349.643 231.375 349.883 232.125 349.883C232.651 349.883 233.104 349.768 233.484 349.539C233.87 349.305 234.122 348.99 234.242 348.594ZM242.664 354.055C242.461 354.055 242.263 354.036 242.07 354V352.852C242.227 352.883 242.411 352.898 242.625 352.898C243.016 352.898 243.328 352.792 243.562 352.578C243.797 352.37 244 352.013 244.172 351.508L244.336 351.008L241.219 342.578H242.664L245.023 349.617H245.055L247.414 342.578H248.844L245.547 351.516C245.188 352.49 244.802 353.156 244.391 353.516C243.984 353.875 243.409 354.055 242.664 354.055ZM256.523 349.914C255.82 350.69 254.878 351.078 253.695 351.078C252.513 351.078 251.57 350.69 250.867 349.914C250.164 349.138 249.812 348.096 249.812 346.789C249.812 345.482 250.164 344.44 250.867 343.664C251.57 342.888 252.513 342.5 253.695 342.5C254.878 342.5 255.82 342.888 256.523 343.664C257.227 344.44 257.578 345.482 257.578 346.789C257.578 348.096 257.227 349.138 256.523 349.914ZM253.695 349.867C254.482 349.867 255.094 349.596 255.531 349.055C255.974 348.508 256.195 347.753 256.195 346.789C256.195 345.82 255.974 345.065 255.531 344.523C255.094 343.982 254.482 343.711 253.695 343.711C252.909 343.711 252.294 343.984 251.852 344.531C251.414 345.073 251.195 345.826 251.195 346.789C251.195 347.753 251.417 348.508 251.859 349.055C252.302 349.596 252.914 349.867 253.695 349.867ZM266.531 342.578V351H265.25V349.609H265.219C264.688 350.589 263.768 351.078 262.461 351.078C261.539 351.078 260.81 350.802 260.273 350.25C259.737 349.693 259.469 348.935 259.469 347.977V342.578H260.828V347.742C260.828 348.43 261.003 348.956 261.352 349.32C261.706 349.685 262.214 349.867 262.875 349.867C263.568 349.867 264.122 349.648 264.539 349.211C264.961 348.773 265.172 348.193 265.172 347.469V342.578H266.531ZM283.867 342.578L281.508 351H280.133L278.211 344.453H278.18L276.258 351H274.883L272.523 342.578H273.867L275.578 349.461H275.609L277.539 342.578H278.852L280.781 349.461H280.812L282.523 342.578H283.867ZM288.117 349.898C288.805 349.898 289.372 349.701 289.82 349.305C290.273 348.904 290.5 348.401 290.5 347.797V347.117L288.297 347.258C287.016 347.336 286.375 347.786 286.375 348.609C286.375 349 286.531 349.312 286.844 349.547C287.161 349.781 287.586 349.898 288.117 349.898ZM287.828 351.078C286.974 351.078 286.286 350.852 285.766 350.398C285.245 349.945 284.984 349.346 284.984 348.602C284.984 347.878 285.255 347.31 285.797 346.898C286.339 346.482 287.12 346.242 288.141 346.18L290.5 346.039V345.336C290.5 344.815 290.333 344.414 290 344.133C289.667 343.852 289.19 343.711 288.57 343.711C288.081 343.711 287.667 343.828 287.328 344.062C286.995 344.297 286.786 344.612 286.703 345.008H285.398C285.419 344.299 285.734 343.706 286.344 343.227C286.953 342.742 287.701 342.5 288.586 342.5C289.581 342.5 290.375 342.747 290.969 343.242C291.562 343.732 291.859 344.391 291.859 345.219V351H290.57V349.539H290.539C290.299 350.008 289.935 350.383 289.445 350.664C288.956 350.94 288.417 351.078 287.828 351.078ZM294.164 351V342.578H295.445V343.945H295.477C296.013 342.982 296.93 342.5 298.227 342.5C299.154 342.5 299.885 342.779 300.422 343.336C300.958 343.888 301.227 344.643 301.227 345.602V351H299.867V345.836C299.867 345.148 299.69 344.622 299.336 344.258C298.987 343.893 298.482 343.711 297.82 343.711C297.128 343.711 296.57 343.93 296.148 344.367C295.732 344.805 295.523 345.385 295.523 346.109V351H294.164ZM303.984 340.68H305.344V342.578H306.984V343.703H305.344V348.758C305.344 349.143 305.427 349.427 305.594 349.609C305.766 349.792 306.031 349.883 306.391 349.883C306.625 349.883 306.82 349.87 306.977 349.844V350.992C306.779 351.039 306.487 351.062 306.102 351.062C305.341 351.062 304.797 350.891 304.469 350.547C304.146 350.198 303.984 349.62 303.984 348.812V343.703H302.812V342.578H303.984V340.68ZM313.766 340.68H315.125V342.578H316.766V343.703H315.125V348.758C315.125 349.143 315.208 349.427 315.375 349.609C315.547 349.792 315.812 349.883 316.172 349.883C316.406 349.883 316.602 349.87 316.758 349.844V350.992C316.56 351.039 316.268 351.062 315.883 351.062C315.122 351.062 314.578 350.891 314.25 350.547C313.927 350.198 313.766 349.62 313.766 348.812V343.703H312.594V342.578H313.766V340.68ZM324.836 349.914C324.133 350.69 323.19 351.078 322.008 351.078C320.826 351.078 319.883 350.69 319.18 349.914C318.477 349.138 318.125 348.096 318.125 346.789C318.125 345.482 318.477 344.44 319.18 343.664C319.883 342.888 320.826 342.5 322.008 342.5C323.19 342.5 324.133 342.888 324.836 343.664C325.539 344.44 325.891 345.482 325.891 346.789C325.891 348.096 325.539 349.138 324.836 349.914ZM322.008 349.867C322.794 349.867 323.406 349.596 323.844 349.055C324.286 348.508 324.508 347.753 324.508 346.789C324.508 345.82 324.286 345.065 323.844 344.523C323.406 343.982 322.794 343.711 322.008 343.711C321.221 343.711 320.607 343.984 320.164 344.531C319.727 345.073 319.508 345.826 319.508 346.789C319.508 347.753 319.729 348.508 320.172 349.055C320.615 349.596 321.227 349.867 322.008 349.867ZM116.367 369.078C115.305 369.078 114.438 368.685 113.766 367.898C113.094 367.107 112.758 366.07 112.758 364.789C112.758 363.513 113.091 362.479 113.758 361.688C114.424 360.896 115.284 360.5 116.336 360.5C116.935 360.5 117.466 360.625 117.93 360.875C118.398 361.125 118.763 361.482 119.023 361.945H119.055V357.234H120.414V369H119.117V367.578H119.094C118.818 368.062 118.445 368.435 117.977 368.695C117.513 368.951 116.977 369.078 116.367 369.078ZM116.609 361.711C115.87 361.711 115.273 361.992 114.82 362.555C114.372 363.117 114.148 363.862 114.148 364.789C114.148 365.721 114.372 366.469 114.82 367.031C115.273 367.589 115.87 367.867 116.609 367.867C117.339 367.867 117.93 367.583 118.383 367.016C118.836 366.448 119.062 365.706 119.062 364.789C119.062 363.872 118.836 363.13 118.383 362.562C117.93 361.995 117.339 361.711 116.609 361.711ZM126.203 361.695C125.542 361.695 124.992 361.914 124.555 362.352C124.122 362.789 123.883 363.365 123.836 364.078H128.469C128.453 363.365 128.237 362.789 127.82 362.352C127.409 361.914 126.87 361.695 126.203 361.695ZM128.438 366.594H129.781C129.667 367.318 129.281 367.914 128.625 368.383C127.969 368.846 127.19 369.078 126.289 369.078C125.107 369.078 124.167 368.695 123.469 367.93C122.776 367.164 122.43 366.128 122.43 364.82C122.43 363.513 122.776 362.466 123.469 361.68C124.161 360.893 125.081 360.5 126.227 360.5C127.352 360.5 128.242 360.872 128.898 361.617C129.555 362.357 129.883 363.362 129.883 364.633V365.164H123.836V365.242C123.836 366.044 124.062 366.685 124.516 367.164C124.969 367.643 125.57 367.883 126.32 367.883C126.846 367.883 127.299 367.768 127.68 367.539C128.065 367.305 128.318 366.99 128.438 366.594ZM131.891 369V357.234H133.25V369H131.891ZM139.031 361.695C138.37 361.695 137.82 361.914 137.383 362.352C136.951 362.789 136.711 363.365 136.664 364.078H141.297C141.281 363.365 141.065 362.789 140.648 362.352C140.237 361.914 139.698 361.695 139.031 361.695ZM141.266 366.594H142.609C142.495 367.318 142.109 367.914 141.453 368.383C140.797 368.846 140.018 369.078 139.117 369.078C137.935 369.078 136.995 368.695 136.297 367.93C135.604 367.164 135.258 366.128 135.258 364.82C135.258 363.513 135.604 362.466 136.297 361.68C136.99 360.893 137.909 360.5 139.055 360.5C140.18 360.5 141.07 360.872 141.727 361.617C142.383 362.357 142.711 363.362 142.711 364.633V365.164H136.664V365.242C136.664 366.044 136.891 366.685 137.344 367.164C137.797 367.643 138.398 367.883 139.148 367.883C139.674 367.883 140.128 367.768 140.508 367.539C140.893 367.305 141.146 366.99 141.266 366.594ZM145.086 358.68H146.445V360.578H148.086V361.703H146.445V366.758C146.445 367.143 146.529 367.427 146.695 367.609C146.867 367.792 147.133 367.883 147.492 367.883C147.727 367.883 147.922 367.87 148.078 367.844V368.992C147.88 369.039 147.589 369.062 147.203 369.062C146.443 369.062 145.898 368.891 145.57 368.547C145.247 368.198 145.086 367.62 145.086 366.812V361.703H143.914V360.578H145.086V358.68ZM153.219 361.695C152.557 361.695 152.008 361.914 151.57 362.352C151.138 362.789 150.898 363.365 150.852 364.078H155.484C155.469 363.365 155.253 362.789 154.836 362.352C154.424 361.914 153.885 361.695 153.219 361.695ZM155.453 366.594H156.797C156.682 367.318 156.297 367.914 155.641 368.383C154.984 368.846 154.206 369.078 153.305 369.078C152.122 369.078 151.182 368.695 150.484 367.93C149.792 367.164 149.445 366.128 149.445 364.82C149.445 363.513 149.792 362.466 150.484 361.68C151.177 360.893 152.096 360.5 153.242 360.5C154.367 360.5 155.258 360.872 155.914 361.617C156.57 362.357 156.898 363.362 156.898 364.633V365.164H150.852V365.242C150.852 366.044 151.078 366.685 151.531 367.164C151.984 367.643 152.586 367.883 153.336 367.883C153.862 367.883 154.315 367.768 154.695 367.539C155.081 367.305 155.333 366.99 155.453 366.594ZM163.875 372.055C163.672 372.055 163.474 372.036 163.281 372V370.852C163.438 370.883 163.622 370.898 163.836 370.898C164.227 370.898 164.539 370.792 164.773 370.578C165.008 370.37 165.211 370.013 165.383 369.508L165.547 369.008L162.43 360.578H163.875L166.234 367.617H166.266L168.625 360.578H170.055L166.758 369.516C166.398 370.49 166.013 371.156 165.602 371.516C165.195 371.875 164.62 372.055 163.875 372.055ZM177.734 367.914C177.031 368.69 176.089 369.078 174.906 369.078C173.724 369.078 172.781 368.69 172.078 367.914C171.375 367.138 171.023 366.096 171.023 364.789C171.023 363.482 171.375 362.44 172.078 361.664C172.781 360.888 173.724 360.5 174.906 360.5C176.089 360.5 177.031 360.888 177.734 361.664C178.438 362.44 178.789 363.482 178.789 364.789C178.789 366.096 178.438 367.138 177.734 367.914ZM174.906 367.867C175.693 367.867 176.305 367.596 176.742 367.055C177.185 366.508 177.406 365.753 177.406 364.789C177.406 363.82 177.185 363.065 176.742 362.523C176.305 361.982 175.693 361.711 174.906 361.711C174.12 361.711 173.505 361.984 173.062 362.531C172.625 363.073 172.406 363.826 172.406 364.789C172.406 365.753 172.628 366.508 173.07 367.055C173.513 367.596 174.125 367.867 174.906 367.867ZM187.742 360.578V369H186.461V367.609H186.43C185.898 368.589 184.979 369.078 183.672 369.078C182.75 369.078 182.021 368.802 181.484 368.25C180.948 367.693 180.68 366.935 180.68 365.977V360.578H182.039V365.742C182.039 366.43 182.214 366.956 182.562 367.32C182.917 367.685 183.424 367.867 184.086 367.867C184.779 367.867 185.333 367.648 185.75 367.211C186.172 366.773 186.383 366.193 186.383 365.469V360.578H187.742ZM190.094 369V360.578H191.375V361.945H191.406C191.531 361.503 191.779 361.151 192.148 360.891C192.518 360.63 192.951 360.5 193.445 360.5C193.659 360.5 193.833 360.518 193.969 360.555V361.898C193.823 361.836 193.589 361.805 193.266 361.805C192.719 361.805 192.279 361.987 191.945 362.352C191.617 362.716 191.453 363.195 191.453 363.789V369H190.094ZM202.75 367.898C203.438 367.898 204.005 367.701 204.453 367.305C204.906 366.904 205.133 366.401 205.133 365.797V365.117L202.93 365.258C201.648 365.336 201.008 365.786 201.008 366.609C201.008 367 201.164 367.312 201.477 367.547C201.794 367.781 202.219 367.898 202.75 367.898ZM202.461 369.078C201.607 369.078 200.919 368.852 200.398 368.398C199.878 367.945 199.617 367.346 199.617 366.602C199.617 365.878 199.888 365.31 200.43 364.898C200.971 364.482 201.753 364.242 202.773 364.18L205.133 364.039V363.336C205.133 362.815 204.966 362.414 204.633 362.133C204.299 361.852 203.823 361.711 203.203 361.711C202.714 361.711 202.299 361.828 201.961 362.062C201.628 362.297 201.419 362.612 201.336 363.008H200.031C200.052 362.299 200.367 361.706 200.977 361.227C201.586 360.742 202.333 360.5 203.219 360.5C204.214 360.5 205.008 360.747 205.602 361.242C206.195 361.732 206.492 362.391 206.492 363.219V369H205.203V367.539H205.172C204.932 368.008 204.568 368.383 204.078 368.664C203.589 368.94 203.049 369.078 202.461 369.078ZM215.758 363.32H214.422C214.333 362.846 214.099 362.461 213.719 362.164C213.339 361.862 212.844 361.711 212.234 361.711C211.495 361.711 210.898 361.992 210.445 362.555C209.992 363.117 209.766 363.862 209.766 364.789C209.766 365.737 209.992 366.487 210.445 367.039C210.904 367.591 211.505 367.867 212.25 367.867C212.839 367.867 213.32 367.734 213.695 367.469C214.076 367.198 214.323 366.81 214.438 366.305H215.773C215.659 367.133 215.279 367.802 214.633 368.312C213.992 368.823 213.195 369.078 212.242 369.078C211.076 369.078 210.141 368.693 209.438 367.922C208.734 367.146 208.383 366.102 208.383 364.789C208.383 363.497 208.734 362.461 209.438 361.68C210.141 360.893 211.07 360.5 212.227 360.5C213.221 360.5 214.036 360.776 214.672 361.328C215.307 361.875 215.669 362.539 215.758 363.32ZM224.539 363.32H223.203C223.115 362.846 222.88 362.461 222.5 362.164C222.12 361.862 221.625 361.711 221.016 361.711C220.276 361.711 219.68 361.992 219.227 362.555C218.773 363.117 218.547 363.862 218.547 364.789C218.547 365.737 218.773 366.487 219.227 367.039C219.685 367.591 220.286 367.867 221.031 367.867C221.62 367.867 222.102 367.734 222.477 367.469C222.857 367.198 223.104 366.81 223.219 366.305H224.555C224.44 367.133 224.06 367.802 223.414 368.312C222.773 368.823 221.977 369.078 221.023 369.078C219.857 369.078 218.922 368.693 218.219 367.922C217.516 367.146 217.164 366.102 217.164 364.789C217.164 363.497 217.516 362.461 218.219 361.68C218.922 360.893 219.852 360.5 221.008 360.5C222.003 360.5 222.818 360.776 223.453 361.328C224.089 361.875 224.451 362.539 224.539 363.32ZM232.656 367.914C231.953 368.69 231.01 369.078 229.828 369.078C228.646 369.078 227.703 368.69 227 367.914C226.297 367.138 225.945 366.096 225.945 364.789C225.945 363.482 226.297 362.44 227 361.664C227.703 360.888 228.646 360.5 229.828 360.5C231.01 360.5 231.953 360.888 232.656 361.664C233.359 362.44 233.711 363.482 233.711 364.789C233.711 366.096 233.359 367.138 232.656 367.914ZM229.828 367.867C230.615 367.867 231.227 367.596 231.664 367.055C232.107 366.508 232.328 365.753 232.328 364.789C232.328 363.82 232.107 363.065 231.664 362.523C231.227 361.982 230.615 361.711 229.828 361.711C229.042 361.711 228.427 361.984 227.984 362.531C227.547 363.073 227.328 363.826 227.328 364.789C227.328 365.753 227.549 366.508 227.992 367.055C228.435 367.596 229.047 367.867 229.828 367.867ZM242.664 360.578V369H241.383V367.609H241.352C240.82 368.589 239.901 369.078 238.594 369.078C237.672 369.078 236.943 368.802 236.406 368.25C235.87 367.693 235.602 366.935 235.602 365.977V360.578H236.961V365.742C236.961 366.43 237.135 366.956 237.484 367.32C237.839 367.685 238.346 367.867 239.008 367.867C239.701 367.867 240.255 367.648 240.672 367.211C241.094 366.773 241.305 366.193 241.305 365.469V360.578H242.664ZM245.016 369V360.578H246.297V361.945H246.328C246.865 360.982 247.781 360.5 249.078 360.5C250.005 360.5 250.737 360.779 251.273 361.336C251.81 361.888 252.078 362.643 252.078 363.602V369H250.719V363.836C250.719 363.148 250.542 362.622 250.188 362.258C249.839 361.893 249.333 361.711 248.672 361.711C247.979 361.711 247.422 361.93 247 362.367C246.583 362.805 246.375 363.385 246.375 364.109V369H245.016ZM254.836 358.68H256.195V360.578H257.836V361.703H256.195V366.758C256.195 367.143 256.279 367.427 256.445 367.609C256.617 367.792 256.883 367.883 257.242 367.883C257.477 367.883 257.672 367.87 257.828 367.844V368.992C257.63 369.039 257.339 369.062 256.953 369.062C256.193 369.062 255.648 368.891 255.32 368.547C254.997 368.198 254.836 367.62 254.836 366.812V361.703H253.664V360.578H254.836V358.68ZM259.359 360.672C259.406 359.781 259.721 359.055 260.305 358.492C260.893 357.924 261.714 357.641 262.766 357.641C263.74 357.641 264.534 357.909 265.148 358.445C265.768 358.982 266.078 359.656 266.078 360.469C266.078 361.609 265.534 362.508 264.445 363.164C263.956 363.456 263.62 363.732 263.438 363.992C263.26 364.253 263.172 364.591 263.172 365.008V365.516H261.805V364.797C261.799 364.286 261.922 363.844 262.172 363.469C262.427 363.094 262.826 362.745 263.367 362.422C263.826 362.141 264.148 361.859 264.336 361.578C264.529 361.297 264.625 360.951 264.625 360.539C264.625 360.049 264.448 359.648 264.094 359.336C263.745 359.018 263.284 358.859 262.711 358.859C262.122 358.859 261.648 359.021 261.289 359.344C260.935 359.667 260.737 360.109 260.695 360.672H259.359ZM262.492 369.078C262.242 369.078 262.031 368.992 261.859 368.82C261.688 368.648 261.602 368.438 261.602 368.188C261.602 367.932 261.688 367.721 261.859 367.555C262.031 367.383 262.242 367.297 262.492 367.297C262.747 367.297 262.958 367.383 263.125 367.555C263.297 367.721 263.383 367.932 263.383 368.188C263.383 368.438 263.297 368.648 263.125 368.82C262.958 368.992 262.747 369.078 262.492 369.078Z" fill="#2E2E3D"/>
<path d="M104.298 419H102.548V414.383L98.5788 407.727H100.532L103.407 412.703H103.462L106.337 407.727H108.274L104.298 414.383V419ZM112.367 411.789C111.758 411.789 111.25 411.992 110.844 412.398C110.443 412.805 110.219 413.333 110.172 413.984H114.477C114.456 413.323 114.253 412.792 113.867 412.391C113.482 411.99 112.982 411.789 112.367 411.789ZM114.469 416.516H116.086C115.966 417.276 115.568 417.898 114.891 418.383C114.214 418.862 113.398 419.102 112.445 419.102C111.216 419.102 110.242 418.716 109.523 417.945C108.81 417.169 108.453 416.117 108.453 414.789C108.453 413.461 108.81 412.398 109.523 411.602C110.237 410.805 111.188 410.406 112.375 410.406C113.542 410.406 114.466 410.784 115.148 411.539C115.831 412.289 116.172 413.307 116.172 414.594V415.188H110.164V415.289C110.164 416.023 110.375 416.615 110.797 417.062C111.219 417.505 111.779 417.727 112.477 417.727C112.971 417.727 113.398 417.617 113.758 417.398C114.117 417.18 114.354 416.885 114.469 416.516ZM118.398 412.93C118.398 412.185 118.702 411.581 119.312 411.117C119.921 410.648 120.713 410.414 121.687 410.414C122.614 410.414 123.38 410.651 123.984 411.125C124.593 411.594 124.908 412.198 124.929 412.938H123.335C123.299 412.562 123.13 412.266 122.827 412.047C122.525 411.828 122.132 411.719 121.648 411.719C121.169 411.719 120.781 411.823 120.484 412.031C120.192 412.234 120.046 412.503 120.046 412.836C120.046 413.346 120.486 413.708 121.367 413.922L122.773 414.258C123.627 414.466 124.231 414.742 124.585 415.086C124.939 415.43 125.117 415.914 125.117 416.539C125.117 417.294 124.791 417.911 124.14 418.391C123.489 418.865 122.65 419.102 121.624 419.102C120.64 419.102 119.833 418.87 119.202 418.406C118.577 417.938 118.234 417.318 118.171 416.547H119.843C119.911 416.953 120.104 417.266 120.421 417.484C120.744 417.698 121.174 417.805 121.71 417.805C122.236 417.805 122.653 417.703 122.96 417.5C123.273 417.297 123.429 417.023 123.429 416.68C123.429 416.409 123.335 416.195 123.148 416.039C122.966 415.883 122.65 415.747 122.202 415.633L120.687 415.258C119.161 414.883 118.398 414.107 118.398 412.93Z" fill="#2E00E4"/>
<rect x="41.5" y="392.5" width="141.5" height="40" rx="9.5" stroke="#2E00E4"/>
<rect x="193.5" y="392" width="142.5" height="41" rx="10" fill="#2E00E4"/>
<path d="M256.602 419H254.899V407.727H256.485L262.328 416.039H262.391V407.727H264.094V419H262.516L256.672 410.695H256.602V419ZM273.562 417.93C272.843 418.711 271.869 419.102 270.64 419.102C269.411 419.102 268.435 418.711 267.711 417.93C266.987 417.148 266.625 416.091 266.625 414.758C266.625 413.43 266.987 412.372 267.711 411.586C268.44 410.799 269.416 410.406 270.64 410.406C271.864 410.406 272.838 410.799 273.562 411.586C274.286 412.367 274.648 413.424 274.648 414.758C274.648 416.091 274.286 417.148 273.562 417.93ZM268.953 416.922C269.359 417.438 269.922 417.695 270.64 417.695C271.359 417.695 271.919 417.438 272.32 416.922C272.726 416.406 272.929 415.685 272.929 414.758C272.929 413.831 272.726 413.109 272.32 412.594C271.919 412.073 271.359 411.812 270.64 411.812C269.922 411.812 269.359 412.073 268.953 412.594C268.547 413.115 268.343 413.836 268.343 414.758C268.343 415.68 268.547 416.401 268.953 416.922Z" fill="white"/>
<rect opacity="0.35" x="336.833" y="17.2979" width="21" height="9.98324" rx="2.16667" stroke="black"/>
<path opacity="0.4" d="M359.333 20.3513V24.2277C360.138 23.8994 360.662 23.1357 360.662 22.2895C360.662 21.4434 360.138 20.6796 359.333 20.3513" fill="black"/>
<rect x="338.333" y="18.7361" width="18" height="7.10681" rx="1.33333" fill="black"/>
<path fill-rule="evenodd" clip-rule="evenodd" d="M323.667 19.0093C325.892 19.0094 328.031 19.8371 329.644 21.3214C329.765 21.436 329.959 21.4346 330.079 21.3182L331.24 20.184C331.3 20.125 331.334 20.045 331.333 19.9618C331.333 19.8786 331.298 19.799 331.237 19.7407C327.005 15.8136 320.329 15.8136 316.097 19.7407C316.035 19.799 316.001 19.8785 316 19.9617C315.999 20.0449 316.033 20.1249 316.094 20.184L317.255 21.3182C317.374 21.4347 317.568 21.4362 317.69 21.3214C319.302 19.837 321.442 19.0093 323.667 19.0093ZM323.667 22.6993C324.889 22.6992 326.068 23.1391 326.974 23.9336C327.097 24.0463 327.29 24.0439 327.409 23.9281L328.569 22.7939C328.63 22.7344 328.663 22.6537 328.663 22.5698C328.662 22.486 328.626 22.406 328.564 22.3477C325.805 19.8625 321.532 19.8625 318.773 22.3477C318.71 22.406 318.675 22.486 318.674 22.5699C318.673 22.6538 318.707 22.7345 318.768 22.7939L319.927 23.9281C320.047 24.0439 320.24 24.0463 320.362 23.9336C321.268 23.1397 322.446 22.6998 323.667 22.6993ZM325.989 25.182C325.991 25.2661 325.957 25.3472 325.895 25.4061L323.89 27.3656C323.831 27.4232 323.751 27.4556 323.667 27.4556C323.583 27.4556 323.503 27.4232 323.445 27.3656L321.439 25.4061C321.377 25.3471 321.343 25.266 321.345 25.1819C321.347 25.0978 321.384 25.0182 321.449 24.9618C322.729 23.913 324.605 23.913 325.886 24.9618C325.95 25.0182 325.988 25.0979 325.989 25.182Z" fill="black"/>
<path fill-rule="evenodd" clip-rule="evenodd" d="M310 17.1208H309C308.448 17.1208 308 17.5547 308 18.09V26.4889C308 27.0242 308.448 27.458 309 27.458H310C310.552 27.458 311 27.0242 311 26.4889V18.09C311 17.5547 310.552 17.1208 310 17.1208ZM304.333 19.3821H305.333C305.886 19.3821 306.333 19.816 306.333 20.3512V26.4889C306.333 27.0241 305.886 27.458 305.333 27.458H304.333C303.781 27.458 303.333 27.0241 303.333 26.4889V20.3512C303.333 19.816 303.781 19.3821 304.333 19.3821ZM300.667 21.6434H299.667C299.114 21.6434 298.667 22.0772 298.667 22.6125V26.4889C298.667 27.0241 299.114 27.458 299.667 27.458H300.667C301.219 27.458 301.667 27.0241 301.667 26.4889V22.6125C301.667 22.0772 301.219 21.6434 300.667 21.6434ZM296 23.5816H295C294.448 23.5816 294 24.0155 294 24.5507V26.4889C294 27.0241 294.448 27.458 295 27.458H296C296.552 27.458 297 27.0241 297 26.4889V24.5507C297 24.0155 296.552 23.5816 296 23.5816Z" fill="black"/>
<path d="M37.8278 26.9961C36.8561 26.9961 36.0236 26.7324 35.3302 26.2051C34.6417 25.6777 34.2218 24.9893 34.0704 24.1396H35.9454C36.0626 24.54 36.2946 24.8623 36.6412 25.1064C36.9928 25.3457 37.3981 25.4653 37.8571 25.4653C38.6432 25.4653 39.2536 25.1138 39.6881 24.4106C40.1276 23.7026 40.34 22.7139 40.3253 21.4443H40.3107H40.3034H40.296C40.0861 21.9668 39.7247 22.3867 39.2121 22.7041C38.7042 23.0166 38.111 23.1729 37.4323 23.1729C36.4264 23.1729 35.589 22.8408 34.9201 22.1768C34.256 21.5127 33.924 20.6802 33.924 19.6792C33.924 18.6099 34.2951 17.7285 35.0372 17.0352C35.7843 16.3418 36.7291 15.9951 37.8717 15.9951C38.6481 15.9951 39.339 16.1758 39.9445 16.5371C40.5548 16.8984 41.0358 17.416 41.3873 18.0898C41.8903 18.9639 42.1417 20.0601 42.1417 21.3784C42.1417 23.1411 41.7609 24.5181 40.9992 25.5093C40.2374 26.5005 39.1803 26.9961 37.8278 26.9961ZM37.879 21.6934C38.4845 21.6934 38.9899 21.498 39.3952 21.1074C39.8004 20.7168 40.0031 20.231 40.0031 19.6499C40.0031 19.0591 39.798 18.561 39.3878 18.1558C38.9826 17.7505 38.4845 17.5479 37.8937 17.5479C37.3029 17.5479 36.8024 17.748 36.3922 18.1484C35.987 18.5488 35.7843 19.0396 35.7843 19.6206C35.7843 20.2163 35.9821 20.7119 36.3776 21.1074C36.778 21.498 37.2785 21.6934 37.879 21.6934ZM45.3881 25.0845C45.1732 25.2993 44.912 25.4067 44.6044 25.4067C44.2968 25.4067 44.0355 25.2993 43.8207 25.0845C43.6058 24.8696 43.4984 24.6084 43.4984 24.3008C43.4984 23.998 43.6058 23.7393 43.8207 23.5244C44.0355 23.3047 44.2968 23.1948 44.6044 23.1948C44.912 23.1948 45.1732 23.3047 45.3881 23.5244C45.6029 23.7393 45.7103 23.998 45.7103 24.3008C45.7103 24.6084 45.6029 24.8696 45.3881 25.0845ZM45.3881 19.562C45.1732 19.7769 44.912 19.8843 44.6044 19.8843C44.2968 19.8843 44.0355 19.7769 43.8207 19.562C43.6058 19.3423 43.4984 19.0786 43.4984 18.771C43.4984 18.4683 43.6058 18.2095 43.8207 17.9946C44.0355 17.7798 44.2968 17.6724 44.6044 17.6724C44.912 17.6724 45.1732 17.7798 45.3881 17.9946C45.6029 18.2095 45.7103 18.4683 45.7103 18.771C45.7103 19.0786 45.6029 19.3423 45.3881 19.562ZM52.2526 26.7837V24.7842H46.9791V23.1582C47.8483 21.5176 49.3107 19.2031 51.3663 16.2148H54.0543V23.2388H55.4752V24.7842H54.0543V26.7837H52.2526ZM48.693 23.2314V23.2827H52.2819V17.6138H52.2526C51.359 18.9077 50.6437 19.9771 50.1066 20.8218C49.5695 21.6665 49.0983 22.4697 48.693 23.2314ZM59.0951 26.7837V18.0166H59.0511L56.3192 19.9355V18.1558L59.0804 16.2148H60.9481V26.7837H59.0951Z" fill="black"/>
</g>
<defs>
<clipPath id="clip0_48_1701">
<rect width="375" height="831" fill="white"/>
</clipPath>
<clipPath id="clip1_48_1701">
<rect width="32" height="18" fill="white" transform="translate(32 212)"/>
</clipPath>
</defs>
</svg>
