<svg width="40" height="14" viewBox="0 0 40 14" fill="none" xmlns="http://www.w3.org/2000/svg">
<path fill-rule="evenodd" clip-rule="evenodd" d="M0.374748 6.99989C0.374748 7.18223 0.447178 7.3571 0.576111 7.48603C0.705044 7.61496 0.879913 7.68739 1.06225 7.68739L37.2776 7.68739L32.9505 12.0131C32.8214 12.1422 32.7489 12.3173 32.7489 12.4999C32.7489 12.6825 32.8214 12.8575 32.9505 12.9866C33.0796 13.1157 33.2547 13.1883 33.4372 13.1883C33.6198 13.1883 33.7949 13.1157 33.924 12.9866L39.424 7.48664C39.488 7.42278 39.5388 7.34691 39.5735 7.26339C39.6081 7.17986 39.626 7.09032 39.626 6.99989C39.626 6.90946 39.6081 6.81992 39.5735 6.7364C39.5388 6.65287 39.488 6.577 39.424 6.51314L33.924 1.01314C33.8601 0.949221 33.7842 0.898516 33.7007 0.863922C33.6172 0.829329 33.5276 0.811523 33.4372 0.811523C33.2547 0.811523 33.0796 0.884048 32.9505 1.01314C32.8214 1.14224 32.7489 1.31733 32.7489 1.49989C32.7489 1.68246 32.8214 1.85755 32.9505 1.98664L37.2776 6.31239L1.06225 6.31239C0.879913 6.31239 0.705044 6.38483 0.576111 6.51376C0.447178 6.64269 0.374748 6.81755 0.374748 6.99989Z" fill="#333333"/>
</svg>
